<svg width="86" height="96" viewBox="0 0 86 96" fill="none" xmlns="http://www.w3.org/2000/svg"><path d="M20.172 71.283L12.47 86.028a2.92 2.92 0 0 1-3.947 1.247 2.97 2.97 0 0 1-1.585-2.612c.006-.47.122-.932.338-1.35l7.761-14.876a35.287 35.287 0 0 0 5.135 2.846zm56.485 16.051a3.02 3.02 0 0 1-1.35.337 2.948 2.948 0 0 1-2.597-1.585l-7.73-14.802a35.407 35.407 0 0 0 3.418-1.746v-.015a28.11 28.11 0 0 0 1.702-1.085l7.805 14.935a2.942 2.942 0 0 1-1.247 3.962z" fill="#E15300"/><path d="M83.657 44.17c.044 1.57.058 16.623-13.557 25.734a28.75 28.75 0 0 1-1.702 1.086v.014a35.393 35.393 0 0 1-3.418 1.746 30.99 30.99 0 0 1-1.864.778 53.77 53.77 0 0 1-17.59 3.315h-5.869a51.716 51.716 0 0 1-19.484-4.093 35.245 35.245 0 0 1-5.135-2.846C.72 60.25 1.526 44.038 1.526 44.038c0-6.94 16.813-12.632 38.13-13.102.97-.03 1.952-.044 2.935-.044 22.697 0 41.08 5.884 41.08 13.146a.393.393 0 0 1-.014.132z" fill="#C52828"/><path d="M77.788 44.17c.044 1.57.059 16.623-13.556 25.734-.543.381-1.115.734-1.702 1.086v.014a35.383 35.383 0 0 1-3.419 1.746 30.96 30.96 0 0 1-1.863.778 53.77 53.77 0 0 1-17.591 3.316 51.716 51.716 0 0 1-19.484-4.094 35.255 35.255 0 0 1-5.135-2.846C.72 60.25 1.526 44.038 1.526 44.038c0-6.94 16.813-12.632 38.13-13.101 21.333.47 38.146 6.162 38.146 13.101a.404.404 0 0 1-.014.132z" fill="#E15300"/><path d="M83.672 44.038a.41.41 0 0 1-.014.132c-.206 7.204-18.5 13.014-41.065 13.014-.705 0-1.409 0-2.113-.015h-.19c-21.612-.381-38.763-6.118-38.763-13.13 0-7.014 17.166-12.75 38.777-13.132h.176c.704-.014 1.408-.014 2.113-.014 22.696 0 41.08 5.883 41.08 13.145z" fill="#C52828"/><path d="M79.271 44.039a.41.41 0 0 1-.014.132C79.05 51.125 61.988 56.788 40.48 57.17h-.19c-21.612-.382-38.763-6.118-38.763-13.131s17.166-12.75 38.777-13.131h.176c21.626.381 38.791 6.118 38.791 13.13z" fill="#FF7101"/><path d="M42.592 69.566a2.934 2.934 0 0 1 2.934 2.935v19.072a2.934 2.934 0 1 1-5.869 0V72.501a2.935 2.935 0 0 1 2.935-2.935z" fill="#E15300"/><path d="M42.596 29.43C21.972 29.43.053 34.551.053 44.042l.003.048a33.034 33.034 0 0 0 8.46 22.138 31.703 31.703 0 0 0 4.63 4.132l-7.18 13.763a4.39 4.39 0 0 0 1.88 5.92 4.399 4.399 0 0 0 5.925-1.87l7.077-13.546a53.716 53.716 0 0 0 17.342 3.606v13.34a4.402 4.402 0 0 0 8.803 0v-13.34A54.432 54.432 0 0 0 63.636 74.9c.223-.084.44-.194.662-.284l7.115 13.623a4.407 4.407 0 0 0 3.894 2.365 4.51 4.51 0 0 0 2.039-.508 4.427 4.427 0 0 0 1.858-5.936l-7.203-13.782A32.483 32.483 0 0 0 85.13 44.17c0-.043.009-.085.009-.128 0-9.491-21.919-14.612-42.542-14.612zm0 2.935c23.33 0 39.592 6.147 39.607 11.669 0 .026-.012.05-.011.076l.001.047C81.97 49.651 65.775 55.72 42.595 55.72c-23.341 0-39.608-6.154-39.608-11.677 0-5.524 16.267-11.677 39.609-11.677zM11.17 86.817a1.46 1.46 0 0 1-1.959.629 1.455 1.455 0 0 1-.633-1.986L15.6 72a35.84 35.84 0 0 0 2.57 1.418l-7 13.399zm32.889 4.756a1.467 1.467 0 0 1-2.935 0V72.5a1.467 1.467 0 0 1 2.934 0v19.073zm32.545-6.056a1.46 1.46 0 0 1-.599 1.97 1.43 1.43 0 0 1-1.993-.613l-7.03-13.46a37.646 37.646 0 0 0 2.155-1.141c.058-.035.114-.073.167-.115.082-.05.158-.102.24-.15l7.06 13.51zm-8.947-15.795a1.498 1.498 0 0 0-.157.108 34.149 34.149 0 0 1-4.915 2.33 51.446 51.446 0 0 1-15.592 3.135V72.5a4.401 4.401 0 0 0-8.803 0v2.77c-12.143-.711-21.404-4.384-27.482-10.992a29.652 29.652 0 0 1-7.065-14.079c7.044 5.526 23.365 8.454 38.952 8.454s31.906-2.927 38.952-8.453a29.02 29.02 0 0 1-13.89 19.522z" fill="#000"/><path d="M10.315 47.56c.389 0 .762-.155 1.037-.43l7.335-7.336a1.467 1.467 0 0 0-2.074-2.075l-7.336 7.336a1.467 1.467 0 0 0 1.038 2.504zm4.831 2.504a1.466 1.466 0 0 0 2.074 0l11.738-11.738a1.467 1.467 0 0 0-2.075-2.074L15.146 47.989a1.467 1.467 0 0 0 0 2.075zm7.334 1.466a1.467 1.467 0 0 0 2.075 0l14.672-14.67a1.467 1.467 0 0 0-2.075-2.076L22.481 49.456a1.466 1.466 0 0 0 0 2.075zm7.337 1.468a1.466 1.466 0 0 0 2.075 0l16.139-16.139a1.467 1.467 0 1 0-2.075-2.074L29.817 50.923a1.467 1.467 0 0 0 0 2.075zm8.803 0a1.467 1.467 0 0 0 2.074 0l14.671-14.672a1.467 1.467 0 1 0-2.074-2.074L38.619 50.923a1.466 1.466 0 0 0 0 2.075zm8.802 0a1.467 1.467 0 0 0 2.075 0L62.7 39.794a1.467 1.467 0 1 0-2.075-2.075L47.422 50.923a1.466 1.466 0 0 0 0 2.075zm10.272-1.468a1.466 1.466 0 0 0 2.074 0l11.737-11.737a1.467 1.467 0 1 0-2.074-2.074L57.694 49.456a1.466 1.466 0 0 0 0 2.074zm10.268-1.466a1.466 1.466 0 0 0 2.075 0l5.868-5.869a1.467 1.467 0 1 0-2.074-2.074l-5.869 5.868a1.466 1.466 0 0 0 0 2.075z" fill="#000"/><path d="M37.989 2.409A1.467 1.467 0 0 0 35.738.526l-3.523 4.212a5.832 5.832 0 0 0-.025 7.462l.028.034a2.904 2.904 0 0 1 0 3.727l-.588.704a1.467 1.467 0 1 0 2.25 1.882l.589-.703a5.833 5.833 0 0 0 .026-7.46l-.029-.037a2.901 2.901 0 0 1 0-3.726l3.523-4.212zm8.801 0A1.467 1.467 0 0 0 44.54.526l-3.523 4.212a5.833 5.833 0 0 0-.025 7.462l.028.034a2.904 2.904 0 0 1 0 3.727l-.588.704a1.467 1.467 0 0 0 2.25 1.882l.589-.703a5.833 5.833 0 0 0 .026-7.46l-.03-.037a2.901 2.901 0 0 1 0-3.726l3.524-4.212zm8.803 0a1.467 1.467 0 0 0-2.25-1.883L49.82 4.738a5.832 5.832 0 0 0-.025 7.462l.028.034a2.904 2.904 0 0 1 0 3.727l-.589.704a1.467 1.467 0 0 0 2.25 1.882l.59-.703a5.833 5.833 0 0 0 .025-7.46l-.028-.037a2.901 2.901 0 0 1 0-3.726l3.522-4.212z" fill="#FF8402"/></svg>