<svg width="42" height="15" viewBox="0 0 42 15" fill="none" xmlns="http://www.w3.org/2000/svg"><path d="M41.587 8.554H35.6a1.221 1.221 0 1 0 0 2.444h5.093c-1.27 2.182-3.608 3.666-6.315 3.666h-20.65c1.139-.994 2.019-2.255 2.608-3.666h6.963a1.221 1.221 0 1 0 0-2.444h-6.33c.053-.406.138-.801.138-1.222 0-2.934-1.326-5.539-3.378-7.332h20.65a7.332 7.332 0 0 1 7.331 7.332c0 .419-.056.823-.123 1.222zm-8.43-4.888h-7.414a1.221 1.221 0 1 0 0 2.444h7.413a1.221 1.221 0 1 0 0-2.444zM7.331 8.554a1.223 1.223 0 1 1 .002-2.446 1.223 1.223 0 0 1-.002 2.446z" fill="#1B2026"/><path d="M7.332 14.664A7.332 7.332 0 1 1 7.332 0a7.332 7.332 0 0 1 0 14.664zm0-10.998a3.67 3.67 0 0 0-3.666 3.666 3.67 3.67 0 0 0 3.666 3.666 3.67 3.67 0 0 0 3.666-3.666 3.67 3.67 0 0 0-3.666-3.666z" fill="#1B2026"/></svg>