<svg width="41" height="41" viewBox="0 0 41 41" fill="none" xmlns="http://www.w3.org/2000/svg"><path fill-rule="evenodd" clip-rule="evenodd" d="M13.709 38.968c1.014.377 2.636-1.39 3.724-1.193 1.088.198 2.018 2.425 3.164 2.425 1.145 0 2.075-2.227 3.163-2.425 1.089-.197 2.71 1.57 3.724 1.193 1.014-.377 1.07-2.767 1.991-3.306.922-.539 3.027.588 3.84-.095.812-.684.052-2.944.737-3.755.685-.81 3.048-.448 3.588-1.368.54-.92-.929-2.805-.551-3.817.377-1.012 2.731-1.5 2.929-2.587.197-1.086-1.829-2.397-1.829-3.54 0-1.143 2.026-2.453 1.829-3.54-.198-1.086-2.552-1.574-2.93-2.586-.377-1.012 1.092-2.898.552-3.818-.54-.92-2.903-.557-3.588-1.368-.685-.81.075-3.071-.737-3.755-.812-.683-2.918.445-3.84-.094-.922-.54-.977-2.93-1.99-3.306-1.015-.377-2.636 1.39-3.725 1.192C22.672 3.028 21.742.8 20.597.8c-1.146 0-2.075 2.228-3.164 2.425-1.088.197-2.71-1.569-3.724-1.192-1.014.377-1.07 2.767-1.99 3.306-.923.539-3.028-.59-3.84.095-.812.683-.053 2.944-.738 3.754-.684.81-3.048.449-3.588 1.368-.54.92.929 2.806.552 3.818-.378 1.012-2.732 1.5-2.93 2.586-.197 1.087 1.83 2.397 1.83 3.54 0 1.143-2.027 2.454-1.83 3.54.198 1.086 2.552 1.575 2.93 2.587.377 1.012-1.092 2.897-.552 3.817.54.92 2.904.558 3.589 1.368.684.81-.075 3.072.737 3.755.812.683 2.917-.444 3.84.095.92.539.976 2.929 1.99 3.306z" fill="#FFC304"/><path fill-rule="evenodd" clip-rule="evenodd" d="M34.26 20.5c0 7.532-6.117 13.638-13.664 13.638-7.546 0-13.664-6.106-13.664-13.638S13.049 6.862 20.596 6.862 34.261 12.968 34.261 20.5z" fill="#FF6B00"/><path fill-rule="evenodd" clip-rule="evenodd" d="M20.596 0c.965 0 1.63.76 2.29 1.511.39.446.777.887 1.014.93.243.044.764-.245 1.281-.532.857-.475 1.709-.947 2.581-.623.882.328 1.212 1.25 1.541 2.17.195.544.39 1.087.575 1.195.186.109.757.01 1.328-.09.957-.168 1.914-.335 2.624.263.707.595.702 1.566.698 2.538-.003.573-.005 1.146.133 1.31.14.165.705.26 1.271.355.962.162 1.925.324 2.396 1.126.47.8.145 1.714-.18 2.63-.195.55-.391 1.1-.312 1.313.079.21.58.502 1.084.794.853.496 1.712.994 1.882 1.93.168.92-.441 1.684-1.056 2.456-.376.474-.756.951-.756 1.224s.38.75.756 1.224c.615.772 1.224 1.537 1.056 2.456-.17.936-1.029 1.435-1.882 1.93-.504.292-1.005.583-1.084.795-.08.211.117.763.312 1.313.325.916.65 1.829.18 2.629-.471.803-1.434.964-2.396 1.126-.566.095-1.132.19-1.27.355-.14.164-.137.737-.134 1.31.004.972.009 1.943-.698 2.538-.71.598-1.667.431-2.624.264-.57-.1-1.142-.2-1.328-.091-.186.108-.38.65-.575 1.195-.329.92-.659 1.843-1.54 2.17-.873.324-1.725-.148-2.582-.623-.517-.287-1.038-.576-1.28-.532-.238.043-.625.485-1.015.93-.66.752-1.325 1.511-2.29 1.511-.965 0-1.63-.76-2.29-1.511-.39-.446-.777-.887-1.015-.93-.242-.044-.763.245-1.28.532-.857.475-1.709.947-2.581.623-.883-.328-1.213-1.25-1.542-2.17-.194-.544-.389-1.087-.574-1.195-.186-.109-.757-.01-1.328.09-.958.168-1.914.335-2.625-.263-.706-.595-.702-1.566-.697-2.538.003-.573.005-1.146-.134-1.31-.139-.165-.704-.26-1.271-.355-.961-.162-1.924-.324-2.395-1.126-.47-.8-.146-1.714.18-2.63.195-.55.39-1.1.312-1.313-.079-.21-.58-.502-1.084-.794-.854-.496-1.713-.994-1.883-1.93-.167-.92.442-1.684 1.056-2.456.377-.474.757-.951.757-1.224s-.38-.75-.757-1.224C.831 18.504.222 17.739.389 16.819c.17-.935 1.03-1.434 1.883-1.93.504-.292 1.005-.582 1.084-.794.079-.212-.117-.763-.312-1.313-.326-.916-.65-1.829-.18-2.629.471-.803 1.434-.964 2.395-1.126.567-.095 1.132-.19 1.271-.354.14-.165.137-.738.134-1.312-.005-.971-.009-1.943.697-2.537.71-.598 1.667-.431 2.625-.264.57.1 1.142.2 1.328.091.185-.108.38-.65.574-1.195.33-.92.66-1.843 1.542-2.17.872-.324 1.724.148 2.58.623.518.287 1.039.576 1.281.532.238-.043.625-.485 1.015-.93C18.966.76 19.631 0 20.596 0zm9.943 10.344a.801.801 0 0 0-.613 1.318l.002.003a12.78 12.78 0 0 1 3.53 8.835 12.78 12.78 0 0 1-3.766 9.078 12.835 12.835 0 0 1-9.096 3.76 12.859 12.859 0 0 1-4.408-.773l-.002-.001a.802.802 0 0 0-.462 1.534c1.522.543 3.162.84 4.872.84 3.994 0 7.61-1.617 10.229-4.23A14.378 14.378 0 0 0 35.062 20.5c0-3.815-1.483-7.284-3.904-9.865a.802.802 0 0 0-.62-.29zm-5.026-3.426a14.465 14.465 0 0 0-4.917-.856c-3.995 0-7.61 1.616-10.229 4.23A14.378 14.378 0 0 0 6.13 20.5c0 3.807 1.477 7.27 3.889 9.849a.802.802 0 1 0 1.23-1.029l-.004-.004A12.78 12.78 0 0 1 7.732 20.5c0-3.545 1.44-6.755 3.768-9.078a12.834 12.834 0 0 1 9.096-3.76c1.535 0 3.007.268 4.372.76a.802.802 0 1 0 .545-1.504zm-9.588 5.712c-.92 0-1.753.372-2.356.974a3.312 3.312 0 0 0-.976 2.35c0 .918.373 1.75.976 2.351a3.324 3.324 0 0 0 2.356.974c.92 0 1.752-.372 2.355-.974a3.312 3.312 0 0 0 .976-2.35 3.31 3.31 0 0 0-.976-2.351 3.324 3.324 0 0 0-2.355-.974zm1.222 2.104a1.725 1.725 0 0 0-1.222-.505 1.726 1.726 0 1 0 0 3.451 1.725 1.725 0 0 0 1.222-2.946zm7.454-1.742l-9.343 14.141a.798.798 0 0 0 1.333.875l9.343-14.141a.795.795 0 0 0-.229-1.103.799.799 0 0 0-1.104.228zm.666 8.729a3.325 3.325 0 1 0 0 6.65c.92 0 1.753-.373 2.356-.975a3.311 3.311 0 0 0 .976-2.35c0-.919-.373-1.75-.976-2.352a3.324 3.324 0 0 0-2.356-.973zm1.223 2.104a1.726 1.726 0 0 0-1.223-.505 1.725 1.725 0 1 0 0 3.45 1.724 1.724 0 0 0 1.223-2.945zM21.684 2.561c-.42-.479-.843-.962-1.088-.962-.245 0-.668.483-1.088.962-.575.655-1.144 1.305-1.935 1.448-.802.145-1.573-.282-2.339-.707-.534-.296-1.065-.59-1.247-.523-.18.067-.385.642-.59 1.214-.292.815-.582 1.627-1.276 2.033-.698.408-1.555.258-2.41.109-.591-.103-1.181-.206-1.316-.093-.14.118-.138.716-.135 1.313.004.868.008 1.736-.509 2.349-.516.61-1.372.754-2.229.898-.593.1-1.188.2-1.28.357-.093.157.108.724.31 1.293.291.819.583 1.64.3 2.4-.28.749-1.027 1.183-1.779 1.619-.536.31-1.075.624-1.112.83-.038.208.347.693.736 1.181.552.693 1.108 1.392 1.108 2.218 0 .826-.556 1.525-1.108 2.218-.389.488-.774.973-.736 1.182.037.205.576.518 1.112.83.752.436 1.5.87 1.779 1.619.283.759-.009 1.58-.3 2.4-.202.568-.403 1.135-.31 1.292.092.158.686.258 1.28.357.857.145 1.713.288 2.229.899.517.612.513 1.48.51 2.348-.004.597-.006 1.195.134 1.313.135.113.725.01 1.316-.093.855-.149 1.712-.299 2.41.11.694.404.984 1.217 1.276 2.032.205.573.41 1.148.59 1.214.182.068.713-.227 1.247-.523.766-.425 1.537-.852 2.34-.707.79.143 1.36.793 1.934 1.448.42.479.843.962 1.088.962.245 0 .668-.483 1.088-.962.575-.655 1.144-1.305 1.934-1.448.803-.145 1.573.282 2.34.707.534.296 1.065.59 1.247.523.18-.066.385-.641.59-1.214.292-.815.582-1.627 1.275-2.033.699-.408 1.555-.258 2.41-.109.592.103 1.182.207 1.317.093.14-.118.137-.715.135-1.313-.005-.868-.008-1.736.509-2.348.515-.61 1.371-.754 2.229-.899.593-.1 1.188-.2 1.28-.357.093-.157-.109-.724-.31-1.292-.292-.82-.583-1.641-.3-2.4.28-.75 1.027-1.183 1.778-1.62.537-.31 1.076-.624 1.113-.83.038-.208-.347-.693-.736-1.181-.552-.693-1.108-1.392-1.108-2.218 0-.826.556-1.525 1.108-2.218.389-.488.774-.973.736-1.181-.037-.206-.576-.52-1.113-.83-.75-.437-1.499-.87-1.778-1.62-.283-.758.008-1.58.3-2.4.201-.568.403-1.135.31-1.292-.092-.158-.687-.258-1.28-.357-.858-.144-1.714-.288-2.23-.898-.516-.613-.512-1.48-.508-2.349.002-.597.005-1.195-.135-1.313-.135-.113-.725-.01-1.316.093-.856.15-1.712.299-2.41-.11-.694-.405-.985-1.217-1.276-2.032-.205-.572-.41-1.147-.59-1.214-.182-.068-.713.227-1.247.523-.767.425-1.537.852-2.34.707-.79-.143-1.36-.793-1.934-1.448z" fill="#000"/></svg>