<svg width="85" height="81" viewBox="0 0 85 81" fill="none" xmlns="http://www.w3.org/2000/svg"><path d="M66.408 63.947l-27.604-2.913 4.573-43.33 27.604 2.913c.868.091 1.507.838 1.42 1.66L68.143 62.62c-.087.822-.867 1.42-1.735 1.328z" fill="url(#a)" filter="url(#b)"/><path d="M62.191 59.28l-27.739 1.017-1.595-43.542 27.74-1.016c.871-.032 1.61.618 1.64 1.443l1.484 40.54c.03.825-.658 1.527-1.53 1.559z" fill="url(#c)" filter="url(#d)"/><path d="M32.92 62.091l-5.794 1.726a1.516 1.516 0 0 1-1.88-1.017l-11.65-39.116a1.516 1.516 0 0 1 1.017-1.88l5.795-1.726L32.92 62.09z" fill="#fff"/><path d="M33.388 61.952l-5.796 1.726a1.516 1.516 0 0 1-1.88-1.017l-11.65-39.117a1.516 1.516 0 0 1 1.018-1.88l5.795-1.726 12.513 42.014z" fill="#FFDD09"/><path d="M59.697 53.977L33.095 61.9 20.658 20.142l26.603-7.923c.836-.25 1.713.195 1.949.987l11.579 38.878c.236.792-.255 1.644-1.092 1.893z" fill="url(#e)" filter="url(#f)"/><path d="M49.05 29.31a.508.508 0 0 0 .342-.631l-.58-1.948a.508.508 0 0 0-.632-.341l-1.678.5-6.36-4.354-.684-2.294.487-.145a.508.508 0 0 0-.29-.974l-6.88 2.05a.508.508 0 0 0 .29.973l.486-.145.684 2.295-2.943 7.123-1.678.5a.508.508 0 0 0-.341.632l.58 1.947c.08.269.363.422.631.342l1.461-.435 1.776 5.964-1.46.435a.508.508 0 0 0-.342.631l.58 1.948c.08.269.363.422.632.342l1.46-.435 1.27 4.267a.51.51 0 0 0 .633.341l1.947-.58a.508.508 0 0 0 .342-.631l-.546-1.834 9.802-2.92.546 1.834c.08.27.363.422.632.342l1.947-.58a.508.508 0 0 0 .342-.632l-1.27-4.267 1.46-.434a.508.508 0 0 0 .342-.632l-.58-1.948a.508.508 0 0 0-.632-.342l-1.46.435-1.777-5.963 1.46-.435z" fill="#FFDD09"/><path d="M49.05 29.31a.508.508 0 0 0 .342-.631l-.58-1.948a.508.508 0 0 0-.632-.341l-1.678.5-6.36-4.354-.684-2.294.487-.145a.508.508 0 0 0-.29-.974l-6.88 2.05a.508.508 0 0 0 .29.973l.486-.145.684 2.295-2.943 7.123-1.678.5a.508.508 0 0 0-.341.632l.58 1.947c.08.269.363.422.631.342l1.461-.435 1.776 5.964-1.46.435a.508.508 0 0 0-.342.631l.58 1.948c.08.269.363.422.632.342l1.46-.435 1.27 4.267a.51.51 0 0 0 .633.341l1.947-.58a.508.508 0 0 0 .342-.631l-.546-1.834 9.802-2.92.546 1.834c.08.27.363.422.632.342l1.947-.58a.508.508 0 0 0 .342-.632l-1.27-4.267 1.46-.434a.508.508 0 0 0 .342-.632l-.58-1.948a.508.508 0 0 0-.632-.342l-1.46.435-1.777-5.963 1.46-.435zm-14.525-7.599l3.96-1.18.58 1.948-3.96 1.18-.58-1.948zm.653 2.986l4.394-1.309 5.782 3.843-12.914 3.846 2.738-6.38zm2.486 21.793l-.973.29L35.565 43l.974-.29 1.125 3.78zm10.085-5.53l-9.802 2.92-.435-1.46 9.802-2.92.435 1.46zm2.639 1.74l-.974.29-1.126-3.78.974-.29 1.126 3.78zm.241-6.307l.29.974-17.591 5.24-.29-.975 17.591-5.239zM34.695 40.08l-1.776-5.964.974-.29 1.776 5.964-.974.29zm10.553-7.516l1.196 4.016-9.802 2.92-1.196-4.017 9.802-2.919zM35.156 34.51l-.29-.974 9.802-2.92.29.974-9.802 2.92zm12.262 1.78l-1.776-5.963.974-.29L48.392 36l-.974.29zm-16.737-2.568l-.29-.973 1.46-.435 14.67-4.37 1.462-.435.29.974-17.592 5.24z" fill="#000"/><path d="M44.403 35.067l-6.881 2.05a.508.508 0 0 0 .29.973l6.88-2.05a.508.508 0 1 0-.29-.973z" fill="#000"/><path d="M60.662 54.618l-27.527 8.198c-.434.13-.81-.074-.94-.509L19.683 20.293c-.13-.435.073-.81.508-.94l27.527-8.198c1.231-.367 2.453.294 2.82 1.526l11.65 39.116c.366 1.232-.295 2.454-1.526 2.82zM33.428 61.15l26.802-7.98c.435-.13.638-.506.509-.94l-11.65-39.117c-.13-.434-.505-.638-.94-.508l-26.802 7.982 12.081 40.565z" fill="#000"/><path d="M33.137 62.816l-5.795 1.725c-1.232.367-2.454-.294-2.82-1.525l-11.65-39.117c-.367-1.231.294-2.453 1.526-2.82l5.795-1.726c.434-.13.81.074.94.509l12.513 42.013c.13.435-.074.811-.509.94zM14.829 22.528c-.434.13-.638.505-.508.94l11.65 39.116c.129.435.505.638.94.509l5.07-1.51L19.9 21.017l-5.07 1.51z" fill="#000"/><path d="M15.752 30.927a3.742 3.742 0 0 1-4.7-2.543 3.742 3.742 0 0 1 2.543-4.7 3.742 3.742 0 0 1 4.7 2.543c.13.434-.074.81-.508.94-.435.13-.811-.074-.94-.509-.367-1.231-1.59-1.892-2.82-1.526-1.232.367-1.893 1.59-1.527 2.82.367 1.232 1.59 1.893 2.82 1.527.435-.13.811.074.94.508.13.435-.073.81-.508.94zm2.373 7.969a3.742 3.742 0 0 1-4.7-2.544 3.742 3.742 0 0 1 2.543-4.7 3.742 3.742 0 0 1 4.7 2.543c.13.435-.074.81-.508.94-.435.13-.811-.074-.94-.508-.367-1.232-1.59-1.893-2.82-1.527-1.232.367-1.893 1.59-1.527 2.82.367 1.232 1.59 1.894 2.82 1.527.435-.13.811.074.94.508.13.435-.073.811-.508.94zm2.373 7.968a3.742 3.742 0 0 1-4.7-2.543 3.742 3.742 0 0 1 2.543-4.701 3.742 3.742 0 0 1 4.7 2.543c.13.435-.074.81-.508.94-.435.13-.811-.074-.94-.508-.367-1.232-1.59-1.893-2.82-1.526-1.232.366-1.893 1.588-1.527 2.82.367 1.231 1.59 1.893 2.82 1.526.435-.13.811.074.94.509.13.434-.073.81-.508.94zm2.373 7.968a3.742 3.742 0 0 1-4.7-2.544 3.742 3.742 0 0 1 2.543-4.7 3.742 3.742 0 0 1 4.7 2.543c.13.435-.074.81-.508.94-.435.13-.81-.074-.94-.508-.367-1.232-1.59-1.893-2.82-1.526-1.232.366-1.893 1.589-1.527 2.82.367 1.232 1.59 1.893 2.82 1.526.435-.13.811.074.94.509.13.434-.073.81-.508.94zm2.373 7.968a3.742 3.742 0 0 1-4.7-2.543 3.742 3.742 0 0 1 2.543-4.7 3.742 3.742 0 0 1 4.7 2.542c.13.435-.074.811-.508.94-.435.13-.81-.074-.94-.508-.367-1.232-1.59-1.893-2.82-1.526-1.232.367-1.893 1.589-1.527 2.82.367 1.232 1.59 1.893 2.82 1.526.435-.13.811.074.94.509.13.434-.073.81-.508.94zm30.084-15.5l-5.07 1.51c-.435.13-.811-.074-.94-.509-.13-.434.073-.81.508-.94l5.07-1.51c.435-.13.811.074.94.508.13.435-.073.811-.508.94zm-7.967 2.372l-5.795 1.726c-.435.13-.81-.074-.94-.508-.13-.435.074-.81.509-.94l5.795-1.726c.434-.13.81.074.94.508.13.435-.074.811-.509.94zm-8.693 2.59l-3.622 1.078c-.434.13-.81-.074-.94-.508-.13-.435.074-.811.509-.94l3.622-1.08c.434-.129.81.075.94.51.13.434-.074.81-.509.94zm2.74 3.914l-5.07 1.51c-.435.13-.811-.074-.94-.508-.13-.435.073-.81.508-.94l5.07-1.51c.435-.13.811.074.94.508.13.435-.073.81-.508.94zm9.42-2.804l-6.52 1.941c-.434.13-.81-.074-.94-.508-.13-.435.074-.81.509-.94l6.52-1.942c.434-.13.81.074.94.509.129.434-.075.81-.51.94z" fill="#000"/><defs><filter id="b" x="37.805" y="17.703" width="35.755" height="48.41" filterUnits="userSpaceOnUse" color-interpolation-filters="sRGB"><feFlood flood-opacity="0" result="BackgroundImageFix"/><feColorMatrix in="SourceAlpha" values="0 0 0 0 0 0 0 0 0 0 0 0 0 0 0 0 0 0 127 0"/><feOffset dy="1"/><feGaussianBlur stdDeviation=".5"/><feColorMatrix values="0 0 0 0 0 0 0 0 0 0 0 0 0 0 0 0 0 0 0.1 0"/><feBlend in2="BackgroundImageFix" result="effect1_dropShadow"/><feBlend in="SourceGraphic" in2="effect1_dropShadow" result="shape"/></filter><filter id="d" x="29.857" y="15.681" width="36.919" height="50.616" filterUnits="userSpaceOnUse" color-interpolation-filters="sRGB"><feFlood flood-opacity="0" result="BackgroundImageFix"/><feColorMatrix in="SourceAlpha" values="0 0 0 0 0 0 0 0 0 0 0 0 0 0 0 0 0 0 127 0"/><feOffset dy="3"/><feGaussianBlur stdDeviation="1.5"/><feColorMatrix values="0 0 0 0 0 0 0 0 0 0 0 0 0 0 0 0 0 0 0.1 0"/><feBlend in2="BackgroundImageFix" result="effect1_dropShadow"/><feBlend in="SourceGraphic" in2="effect1_dropShadow" result="shape"/></filter><filter id="f" x="5.658" y=".766" width="70.559" height="80.134" filterUnits="userSpaceOnUse" color-interpolation-filters="sRGB"><feFlood flood-opacity="0" result="BackgroundImageFix"/><feColorMatrix in="SourceAlpha" values="0 0 0 0 0 0 0 0 0 0 0 0 0 0 0 0 0 0 127 0"/><feOffset dy="4"/><feGaussianBlur stdDeviation="7.5"/><feColorMatrix values="0 0 0 0 0 0 0 0 0 0 0 0 0 0 0 0 0 0 0.25 0"/><feBlend in2="BackgroundImageFix" result="effect1_dropShadow"/><feBlend in="SourceGraphic" in2="effect1_dropShadow" result="shape"/></filter><linearGradient id="a" x1="57.968" y1="19.243" x2="53.395" y2="62.574" gradientUnits="userSpaceOnUse"><stop stop-color="#F4F4F4"/><stop offset="1" stop-color="#fff"/></linearGradient><linearGradient id="c" x1="47.519" y1="16.218" x2="49.114" y2="59.76" gradientUnits="userSpaceOnUse"><stop stop-color="#F4F4F4"/><stop offset="1" stop-color="#fff"/></linearGradient><linearGradient id="e" x1="34.72" y1="15.954" x2="47.156" y2="57.712" gradientUnits="userSpaceOnUse"><stop stop-color="#FF6D03"/><stop offset="1" stop-color="#FFA80D"/></linearGradient></defs></svg>