<svg width="45" height="45" viewBox="0 0 45 45" fill="none" xmlns="http://www.w3.org/2000/svg"><g clip-path="url(#a)"><path fill-rule="evenodd" clip-rule="evenodd" d="M7.415 13.031l1.74-1.74a.13.13 0 0 1 .007-.007l.615-.614a1.41 1.41 0 0 0 0-1.989 1.41 1.41 0 0 0-1.99 0l-2.982 2.983a1.41 1.41 0 0 0 0 1.989 1.41 1.41 0 0 0 1.989 0l.616-.616.005-.006zm12.526-7.142v3.185a17.707 17.707 0 0 1 5.274 0V5.889a1.411 1.411 0 0 0-1.406-1.407h-2.461A1.408 1.408 0 0 0 19.94 5.89zM7.416 15.02l1.01 1.01a17.678 17.678 0 0 1 3.73-3.729l-1.011-1.01a1.412 1.412 0 0 0-1.989 0l-1.74 1.74a1.411 1.411 0 0 0 0 1.989zm26.598-3.729l-1.01 1.01a17.687 17.687 0 0 1 3.729 3.73l1.01-1.011a1.412 1.412 0 0 0 0-1.989l-1.74-1.74a1.411 1.411 0 0 0-1.989 0z" fill="#FFC304"/><path fill-rule="evenodd" clip-rule="evenodd" d="M21.348 4.482h2.46c.06 0 .119.004.176.011V2.197A1.41 1.41 0 0 0 22.578.791a1.41 1.41 0 0 0-1.406 1.406v2.297c.057-.008.116-.012.176-.012z" fill="gray"/><path fill-rule="evenodd" clip-rule="evenodd" d="M35.383 8.681a1.41 1.41 0 0 0 0 1.99l.616.615.005.005 1.74 1.74.007.008.615.614a1.41 1.41 0 0 0 1.989 0 1.41 1.41 0 0 0 0-1.989l-2.983-2.983a1.41 1.41 0 0 0-1.99 0zm-15.442.393C11.484 10.346 5 17.643 5 26.455c0 9.708 7.87 17.578 17.578 17.578 9.708 0 17.578-7.87 17.578-17.578 0-8.812-6.484-16.11-14.941-17.381a17.704 17.704 0 0 0-5.274 0zm2.637 2.616c8.155 0 14.765 6.61 14.765 14.765 0 8.155-6.61 14.766-14.765 14.766-8.155 0-14.765-6.61-14.765-14.766 0-8.154 6.61-14.765 14.765-14.765z" fill="#FFC304"/><path fill-rule="evenodd" clip-rule="evenodd" d="M22.578 11.69c-8.155 0-14.765 6.61-14.765 14.765 0 8.155 6.61 14.766 14.765 14.766 8.155 0 14.765-6.61 14.765-14.766 0-8.154-6.61-14.765-14.765-14.765zm0 4.444l1.738 10.321c.159.943-.782 1.738-1.738 1.738s-1.897-.795-1.738-1.738l1.738-10.321z" fill="#F0F0F0"/><path fill-rule="evenodd" clip-rule="evenodd" d="M22.578 16.134L20.84 26.455c-.159.943.782 1.738 1.738 1.738s1.897-.795 1.738-1.738l-1.738-10.321z" fill="#FD4848"/><path d="M6.936 26.455c0 8.627 7.017 15.645 15.644 15.645 8.627 0 15.644-7.019 15.644-15.645S31.207 10.811 22.58 10.811c-8.627 0-15.644 7.018-15.644 15.644zm7.956-11.558l.247.427a.878.878 0 1 0 1.522-.879l-.248-.43c1.61-.802 3.399-1.3 5.288-1.418v.498a.879.879 0 1 0 1.758 0v-.498a13.78 13.78 0 0 1 5.288 1.418l-.248.43a.878.878 0 1 0 1.522.88l.247-.428a14.002 14.002 0 0 1 3.87 3.87l-.427.247a.879.879 0 0 0 .879 1.522l.43-.248a13.787 13.787 0 0 1 1.418 5.288h-.498a.88.88 0 0 0 0 1.758h.498a13.787 13.787 0 0 1-1.419 5.288l-.43-.248a.879.879 0 0 0-.878 1.522l.427.247a13.993 13.993 0 0 1-3.87 3.87l-.247-.427a.88.88 0 0 0-1.522.879l.248.43a13.788 13.788 0 0 1-5.288 1.418v-.498a.879.879 0 1 0-1.758 0v.498a13.788 13.788 0 0 1-5.288-1.418l.248-.43a.879.879 0 0 0-1.522-.879l-.247.427a13.998 13.998 0 0 1-3.87-3.87l.427-.247a.879.879 0 1 0-.879-1.522l-.43.248a13.781 13.781 0 0 1-1.418-5.288h.498a.879.879 0 1 0 0-1.758h-.498c.118-1.89.616-3.677 1.418-5.288l.43.248a.879.879 0 0 0 .879-1.522l-.428-.247a13.998 13.998 0 0 1 3.87-3.87z" fill="#000"/><path d="M22.58 29.072c.797 0 1.578-.36 2.089-.964.44-.521.624-1.16.516-1.799l-1.738-10.321a.879.879 0 0 0-1.733 0l-1.739 10.321c-.107.64.076 1.278.517 1.799.51.604 1.291.964 2.088.964zm-.871-2.471l.872-5.175.87 5.175c.022.124-.02.249-.125.372a1.028 1.028 0 0 1-.745.341 1.03 1.03 0 0 1-.747-.341c-.104-.123-.146-.248-.125-.372z" fill="#000"/><path d="M38.365 15.642a2.27 2.27 0 0 0 .5-.754 2.28 2.28 0 0 0 2.11-.614c.891-.89.891-2.34 0-3.231L37.992 8.06a2.288 2.288 0 0 0-3.231 0 2.27 2.27 0 0 0-.668 1.616c0 .168.019.333.054.494a2.27 2.27 0 0 0-.754.5l-.491.491a18.36 18.36 0 0 0-6.807-2.825V5.889c0-.88-.5-1.644-1.23-2.026V2.197A2.288 2.288 0 0 0 22.58-.088a2.288 2.288 0 0 0-2.285 2.285v1.666a2.286 2.286 0 0 0-1.23 2.026v2.447c-.162.031-.323.065-.483.1a.879.879 0 1 0 .38 1.716 16.73 16.73 0 0 1 3.618-.396c9.208 0 16.699 7.491 16.699 16.7 0 9.207-7.491 16.698-16.7 16.698-9.207 0-16.698-7.49-16.698-16.699 0-3.602 1.132-7.007 3.167-9.807a.87.87 0 0 0 .15-.201 16.757 16.757 0 0 1 4.58-4.183.88.88 0 0 0-.927-1.494c-.202.125-.4.255-.596.388l-.489-.489a2.275 2.275 0 0 0-.753-.5 2.286 2.286 0 0 0-.614-2.11 2.288 2.288 0 0 0-3.232 0l-2.983 2.983a2.288 2.288 0 0 0 0 3.232 2.28 2.28 0 0 0 2.11.614c.111.274.278.531.5.754l.49.489a18.04 18.04 0 0 0-.833 1.35 18.5 18.5 0 0 0-2.328 8.974c0 10.177 8.28 18.457 18.457 18.457 10.177 0 18.456-8.28 18.456-18.457 0-3.82-1.166-7.374-3.163-10.322l.492-.491zm-32.938-2.61a.534.534 0 0 1 0-.746L8.41 9.302a.527.527 0 0 1 .373-.151c.136 0 .272.05.373.151a.535.535 0 0 1 0 .746L6.794 12.41l-.621.621a.534.534 0 0 1-.746 0zm2.61 1.367a.535.535 0 0 1 0-.746l1.74-1.74a.523.523 0 0 1 .373-.153c.142 0 .274.054.373.153l.31.31a18.53 18.53 0 0 0-2.486 2.486l-.31-.31zm27.967-5.097a.526.526 0 0 1 .372-.151c.136 0 .272.05.373.151l2.983 2.984a.535.535 0 0 1 0 .745.535.535 0 0 1-.745 0l-.621-.62v-.001l-1.74-1.74h-.001l-.621-.622a.523.523 0 0 1-.153-.373c0-.142.054-.274.153-.373zM22.58 1.67c.285 0 .527.241.527.527v1.407h-1.055V2.197c0-.286.242-.527.528-.527zm-1.758 6.414V5.889c0-.286.241-.528.527-.528h2.461c.286 0 .528.242.528.528v2.193a18.441 18.441 0 0 0-3.516.002zm13.5 4.142l.314-.313a.534.534 0 0 1 .746 0l1.74 1.74a.535.535 0 0 1 0 .746l-.313.313a18.625 18.625 0 0 0-2.486-2.486z" fill="#000"/></g><defs><clipPath id="a"><path fill="#fff" d="M0 0h45v45H0z"/></clipPath></defs></svg>