<svg width="96" height="92" viewBox="0 0 96 92" fill="none" xmlns="http://www.w3.org/2000/svg"><path d="M31.952 52.084v-6.712a4.221 4.221 0 0 0-4.222-4.221H1.875v48.628H27.73a4.221 4.221 0 0 0 4.222-4.221V52.084z" fill="#FF6B00"/><path d="M88.046 53.654h-4.878a6.079 6.079 0 1 0 0-12.158H59.693l3.562-10.577c1.94-5.76-1.264-11.982-7.078-13.75l-3.29-1-5.169 14.286a19.504 19.504 0 0 1-9.013 10.494l-6.879 3.745.126 41.855 4.374 1.715a26.95 26.95 0 0 0 9.84 1.86h32.763a6.079 6.079 0 0 0 0-12.156h4.725a6.079 6.079 0 0 0 0-12.157h4.392a6.079 6.079 0 1 0 0-12.157z" fill="#FFC304"/><path d="M20.469 82.54a3.377 3.377 0 1 0 0-6.753 3.377 3.377 0 0 0 0 6.754z" fill="#F0F0F0"/><path d="M96 59.733c0-3.787-2.66-6.962-6.21-7.76a7.906 7.906 0 0 0 1.331-4.398c0-4.386-3.568-7.954-7.953-7.954H62.302l2.73-8.103a12.55 12.55 0 0 0-.741-9.829 12.551 12.551 0 0 0-7.569-6.314l-3.29-1a1.874 1.874 0 0 0-2.308 1.156l-5.17 14.286a17.614 17.614 0 0 1-8.146 9.485l-5.164 2.813a6.09 6.09 0 0 0-4.913-2.494H1.874A1.876 1.876 0 0 0 0 41.496v48.629C0 91.16.84 92 1.875 92H27.73a6.098 6.098 0 0 0 5.265-3.028l2.646 1.038A28.711 28.711 0 0 0 46.166 92h32.763c4.385 0 7.953-3.568 7.953-7.953a7.908 7.908 0 0 0-1.35-4.43c3.481-.846 6.075-3.989 6.075-7.728 0-1.67-.519-3.222-1.402-4.503C93.545 66.443 96 63.37 96 59.733zm-7.954 4.203H68.761a1.875 1.875 0 0 0 0 3.75h14.892a4.208 4.208 0 0 1 4.204 4.203 4.208 4.208 0 0 1-4.203 4.204H68.76a1.875 1.875 0 0 0 0 3.75h10.167a4.208 4.208 0 0 1 4.204 4.204 4.208 4.208 0 0 1-4.204 4.203H46.166c-3.146 0-6.226-.582-9.156-1.73l-3.183-1.25V66.876a1.875 1.875 0 0 0-3.75 0v19.028a2.349 2.349 0 0 1-2.347 2.347H3.75V43.37h23.98a2.349 2.349 0 0 1 2.347 2.347v6.366a1.875 1.875 0 0 0 3.75 0V45.74l5.774-3.144a21.36 21.36 0 0 0 9.88-11.503l4.564-12.613 1.587.483a8.83 8.83 0 0 1 5.325 4.442 8.83 8.83 0 0 1 .521 6.916l-3.562 10.576a1.876 1.876 0 0 0 1.777 2.474h23.475a4.208 4.208 0 0 1 4.203 4.203 4.208 4.208 0 0 1-4.203 4.204H68.76a1.875 1.875 0 0 0 0 3.75h19.285a4.208 4.208 0 0 1 4.204 4.204 4.208 4.208 0 0 1-4.204 4.204z" fill="#1B2026"/><path d="M20.469 73.912a5.258 5.258 0 0 0-5.252 5.252 5.258 5.258 0 0 0 5.252 5.252 5.258 5.258 0 0 0 5.252-5.252 5.258 5.258 0 0 0-5.252-5.252zm0 6.754a1.504 1.504 0 0 1-1.502-1.502c0-.828.674-1.502 1.502-1.502s1.502.674 1.502 1.502-.674 1.502-1.502 1.502zM56.03 0c-1.036 0-1.876.84-1.876 1.875v7.563a1.875 1.875 0 0 0 3.75 0V1.875C57.904.84 57.064 0 56.03 0zM67.2 22.487c0 1.036.839 1.875 1.874 1.875h11.563a1.875 1.875 0 0 0 0-3.75H69.074c-1.035 0-1.875.84-1.875 1.875zm-35.784 1.87h11.563a1.875 1.875 0 0 0 0-3.75H31.416a1.875 1.875 0 0 0 0 3.75zm12.686-11.149c.366.366.846.55 1.326.55a1.875 1.875 0 0 0 1.326-3.201l-5.46-5.46a1.876 1.876 0 0 0-2.651 2.652l5.46 5.459zm22.527.552c.48 0 .96-.182 1.326-.548l5.459-5.46a1.875 1.875 0 0 0-2.652-2.651l-5.459 5.459a1.875 1.875 0 0 0 1.326 3.2z" fill="#1B2026"/></svg>