<svg width="16" height="16" viewBox="0 0 16 16" fill="none" xmlns="http://www.w3.org/2000/svg"><path d="M8 0a8 8 0 1 0 0 16A8 8 0 0 0 8 0zm1.665 12.398c-.412.163-.74.286-.985.371a2.6 2.6 0 0 1-.855.128c-.499 0-.887-.122-1.163-.365a1.178 1.178 0 0 1-.414-.926c0-.145.01-.294.03-.446.022-.152.055-.322.1-.514l.516-1.82a9.33 9.33 0 0 0 .116-.495c.03-.156.046-.3.046-.43 0-.23-.049-.393-.144-.485-.097-.091-.279-.136-.55-.136-.133 0-.27.02-.41.061-.14.043-.26.081-.359.12L5.73 6.9c.337-.138.66-.256.968-.353.308-.1.6-.148.874-.148.495 0 .877.12 1.146.359.267.24.402.55.402.932 0 .08-.01.219-.028.418-.018.2-.053.382-.103.549l-.513 1.815a5.207 5.207 0 0 0-.113.498c-.033.187-.05.329-.05.425 0 .24.054.405.163.492.107.088.294.132.56.132.125 0 .265-.023.424-.066.157-.043.27-.082.342-.115l-.137.56zm-.09-7.367c-.24.222-.528.333-.864.333-.336 0-.626-.11-.867-.333a1.064 1.064 0 0 1-.361-.808c0-.315.122-.586.36-.81.242-.225.532-.337.868-.337.336 0 .625.112.863.337.24.224.36.495.36.81 0 .316-.12.586-.36.808z" fill="#FF6B00"/></svg>