<svg width="213" height="155" viewBox="0 0 213 155" fill="none" xmlns="http://www.w3.org/2000/svg"><path d="M212.226 59.892c-.077-4.334-.413-9.813-1.001-16.433-.591-6.623-1.437-12.543-2.536-17.759-1.259-5.858-3.991-10.794-8.197-14.807-4.206-4.014-9.101-6.34-14.685-6.984C168.35 1.904 141.971.9 106.669.9 71.366.9 44.987 1.904 27.531 3.91c-5.583.643-10.459 2.97-14.625 6.984-4.168 4.011-6.88 8.948-8.139 14.808-1.178 5.217-2.063 11.136-2.653 17.758-.589 6.62-.923 12.097-1.001 16.433-.08 4.334-.119 10.353-.119 18.058s.039 13.726.12 18.059c.077 4.336.412 9.812 1 16.432.59 6.623 1.436 12.542 2.536 17.759 1.259 5.86 3.99 10.795 8.197 14.807 4.208 4.013 9.103 6.34 14.685 6.983 17.455 2.007 43.833 3.01 79.137 3.01 35.306 0 61.682-1.003 79.138-3.01 5.584-.643 10.458-2.97 14.626-6.983 4.168-4.012 6.879-8.95 8.137-14.807 1.179-5.217 2.064-11.136 2.655-17.759.588-6.619.922-12.098 1.001-16.432.079-4.333.118-10.354.118-18.059 0-7.705-.039-13.724-.118-18.058z" fill="url(#a)"/><defs><linearGradient id="a" x1="106.669" y1=".9" x2="106.669" y2="155" gradientUnits="userSpaceOnUse"><stop stop-color="#FF6D03"/><stop offset="1" stop-color="#FFA80D"/></linearGradient></defs></svg>