<svg width="558" height="286" viewBox="0 0 558 286" fill="none" xmlns="http://www.w3.org/2000/svg"><path d="M64.258 159H49.56V99.772H21.093V159H6.445V87.906h57.813V159zm36.279.977c-7.747 0-14.062-2.377-18.945-7.129-4.85-4.753-7.276-11.084-7.276-18.994v-1.368c0-5.306 1.026-10.042 3.077-14.209 2.05-4.199 4.948-7.422 8.691-9.668 3.776-2.278 8.073-3.418 12.89-3.418 7.227 0 12.908 2.279 17.042 6.836 4.166 4.558 6.25 11.019 6.25 19.385v5.762H88.623c.456 3.45 1.823 6.217 4.102 8.301 2.31 2.083 5.224 3.125 8.74 3.125 5.436 0 9.684-1.97 12.744-5.909l6.934 7.764c-2.116 2.995-4.981 5.339-8.594 7.031-3.613 1.66-7.617 2.491-12.012 2.491zm-1.611-43.36c-2.8 0-5.078.944-6.836 2.832-1.725 1.888-2.832 4.59-3.32 8.106h19.628v-1.123c-.065-3.125-.911-5.534-2.539-7.227-1.627-1.725-3.938-2.588-6.933-2.588zM174.854 159h-14.112v-16.602c-2.637.489-5.094.733-7.373.733-7.975 0-13.981-1.693-18.017-5.078-4.037-3.386-6.088-8.334-6.153-14.844v-17.041h14.112v17.041c.032 3.06.781 5.257 2.246 6.592 1.464 1.302 4.069 1.953 7.812 1.953 2.344 0 4.802-.277 7.373-.83v-24.756h14.112V159zm42.675-52.832h14.112V159h-14.112v-32.617L199.854 159h-14.161v-52.832h14.161v32.568l17.675-32.568zm-185.888 96.93c6.77 0 12.174 2.246 16.21 6.738 4.037 4.492 6.055 10.596 6.055 18.31v.684c0 7.617-2.246 13.721-6.738 18.311-4.492 4.589-10.53 6.884-18.115 6.884-7.617 0-13.688-2.474-18.213-7.421-4.492-4.981-6.738-11.736-6.738-20.264v-2.344c.065-11.881 2.067-21.175 6.005-27.881 3.972-6.738 9.929-10.986 17.871-12.744 4.167-.911 6.853-1.807 8.057-2.685 1.205-.912 1.807-2.165 1.807-3.76h11.426c0 5.11-1.384 8.952-4.15 11.523-2.735 2.572-7.618 4.558-14.65 5.957-4.166.847-7.454 2.49-9.863 4.932-2.408 2.441-4.036 5.876-4.882 10.303 4.492-4.362 9.798-6.543 15.918-6.543zm-2.686 11.425c-3.353 0-5.99 1.123-7.91 3.37-1.888 2.246-2.832 5.892-2.832 10.937 0 4.492.928 7.927 2.783 10.303 1.856 2.344 4.541 3.515 8.057 3.515 3.418 0 6.054-1.155 7.91-3.466 1.855-2.312 2.8-5.713 2.832-10.205v-1.172c0-4.33-.96-7.617-2.88-9.864-1.889-2.278-4.542-3.418-7.96-3.418zM92.97 253c-.651-1.27-1.123-2.848-1.416-4.736-3.418 3.808-7.862 5.713-13.33 5.713-5.176 0-9.473-1.498-12.891-4.493-3.385-2.994-5.078-6.77-5.078-11.328 0-5.599 2.067-9.896 6.201-12.89 4.167-2.995 10.173-4.509 18.018-4.541h6.494v-3.028c0-2.441-.635-4.394-1.904-5.859-1.237-1.465-3.207-2.197-5.909-2.197-2.376 0-4.248.569-5.615 1.709-1.335 1.139-2.002 2.701-2.002 4.687H61.426c0-3.06.944-5.892 2.832-8.496s4.557-4.639 8.008-6.103c3.45-1.498 7.324-2.247 11.62-2.247 6.511 0 11.67 1.644 15.48 4.932 3.84 3.255 5.761 7.845 5.761 13.77v22.9c.033 5.013.732 8.805 2.1 11.377v.83H92.969zm-11.67-9.814c2.083 0 4.004-.456 5.761-1.368 1.758-.944 3.06-2.197 3.907-3.759v-9.082h-5.274c-7.063 0-10.823 2.441-11.279 7.324l-.049.83c0 1.758.619 3.206 1.856 4.346 1.237 1.139 2.93 1.709 5.078 1.709zm82.226-16.114c0 8.138-1.855 14.665-5.566 19.58-3.678 4.883-8.659 7.325-14.941 7.325-5.339 0-9.652-1.856-12.94-5.567v24.902h-14.111v-73.144h13.086l.488 5.176c3.418-4.102 7.878-6.153 13.379-6.153 6.51 0 11.572 2.409 15.185 7.227 3.614 4.818 5.42 11.458 5.42 19.922v.732zm-14.111-1.025c0-4.915-.879-8.708-2.637-11.377-1.725-2.669-4.248-4.004-7.568-4.004-4.427 0-7.471 1.693-9.131 5.078v21.631c1.725 3.483 4.802 5.225 9.229 5.225 6.738 0 10.107-5.518 10.107-16.553zm49.121-22.949c6.771 0 12.175 2.246 16.211 6.738 4.037 4.492 6.055 10.596 6.055 18.31v.684c0 7.617-2.246 13.721-6.739 18.311-4.492 4.589-10.53 6.884-18.115 6.884-7.617 0-13.688-2.474-18.213-7.421-4.492-4.981-6.738-11.736-6.738-20.264v-2.344c.065-11.881 2.067-21.175 6.006-27.881 3.971-6.738 9.928-10.986 17.871-12.744 4.167-.911 6.852-1.807 8.057-2.685 1.204-.912 1.806-2.165 1.806-3.76h11.426c0 5.11-1.383 8.952-4.15 11.523-2.735 2.572-7.617 4.558-14.649 5.957-4.166.847-7.454 2.49-9.863 4.932-2.409 2.441-4.036 5.876-4.883 10.303 4.492-4.362 9.798-6.543 15.918-6.543zm-2.685 11.425c-3.353 0-5.99 1.123-7.911 3.37-1.888 2.246-2.832 5.892-2.832 10.937 0 4.492.928 7.927 2.784 10.303 1.855 2.344 4.541 3.515 8.056 3.515 3.418 0 6.055-1.155 7.91-3.466 1.856-2.312 2.8-5.713 2.832-10.205v-1.172c0-4.33-.96-7.617-2.88-9.864-1.888-2.278-4.541-3.418-7.959-3.418zm57.714 39.454c-7.747 0-14.062-2.377-18.945-7.129-4.85-4.753-7.275-11.084-7.275-18.994v-1.368c0-5.306 1.025-10.042 3.076-14.209 2.051-4.199 4.948-7.422 8.691-9.668 3.776-2.278 8.073-3.418 12.891-3.418 7.227 0 12.907 2.279 17.041 6.836 4.167 4.558 6.25 11.019 6.25 19.385v5.762H241.65c.456 3.45 1.823 6.217 4.102 8.301 2.311 2.083 5.225 3.125 8.74 3.125 5.436 0 9.684-1.97 12.744-5.909l6.934 7.764c-2.116 2.995-4.981 5.339-8.594 7.031-3.613 1.66-7.617 2.491-12.012 2.491zm-1.611-43.36c-2.799 0-5.078.944-6.836 2.832-1.725 1.888-2.832 4.59-3.32 8.106h19.629v-1.123c-.065-3.125-.912-5.534-2.539-7.227-1.628-1.725-3.939-2.588-6.934-2.588zm52.1 22.901h-5.664V253h-14.112v-52.832h14.112v19.873h5.029l11.523-19.873h17.823l-17.285 25.146L334.375 253h-18.799l-11.523-19.482zm50.927-13.086h7.618c1.041-6.576 3.727-11.752 8.056-15.528 4.362-3.808 9.847-5.713 16.455-5.713 7.129 0 12.94 2.181 17.432 6.543 4.525 4.362 7.048 10.287 7.568 17.774l.098 3.613c0 8.106-2.262 14.616-6.787 19.531-4.525 4.883-10.596 7.325-18.213 7.325-6.868 0-12.5-1.986-16.895-5.957-4.361-3.972-6.982-9.359-7.861-16.163h-7.471V253h-14.16v-52.832h14.16v20.264zm21.29 6.689c0 5.013.944 8.854 2.832 11.524 1.888 2.636 4.589 3.955 8.105 3.955 3.483 0 6.169-1.319 8.057-3.955 1.888-2.637 2.832-6.82 2.832-12.549 0-4.916-.961-8.724-2.881-11.426-1.921-2.702-4.623-4.053-8.106-4.053-3.45 0-6.119 1.351-8.007 4.053-1.888 2.669-2.832 6.82-2.832 12.451zM159.746 35.434c.22.348.455.694.701 1.026a2.342 2.342 0 0 0 3.281.488 2.344 2.344 0 0 0 .488-3.28 11.558 11.558 0 0 1-.497-.729c-2.473-3.938-2.273-9.097.498-12.837 3.966-5.354 4.202-12.71.587-18.303a26.27 26.27 0 0 0-.567-.82 2.345 2.345 0 1 0-3.813 2.732c.13.182.352.498.44.634 2.561 3.962 2.393 9.172-.417 12.965-3.972 5.361-4.247 12.476-.701 18.124zm13.054 8.633c.219.348.455.694.701 1.026a2.342 2.342 0 0 0 3.281.488 2.345 2.345 0 0 0 .488-3.28 11.32 11.32 0 0 1-.497-.729c-2.473-3.938-2.273-9.097.497-12.837 3.967-5.354 4.203-12.71.588-18.303-.18-.278-.504-.731-.567-.82a2.346 2.346 0 0 0-3.814 2.732c.13.182.353.498.441.634 2.56 3.962 2.393 9.172-.417 12.965-3.972 5.361-4.247 12.476-.701 18.124z" fill="#fff"/><path fill-rule="evenodd" clip-rule="evenodd" d="M193.298 54.031a6.926 6.926 0 0 0-9.715 1.07c-.126.15-3.376 3.968-8.36 6.25l3.019 5.283a1.66 1.66 0 0 1-.618 2.266c-.84.431-1.595.225-2.265-.618l-3.309-5.79c-.788.204-1.603.36-2.444.45v5.623a1.66 1.66 0 0 1-3.321 0V62.94a16.708 16.708 0 0 1-2.444-.45l-3.309 5.79c-.67.844-1.425 1.05-2.265.618a1.66 1.66 0 0 1-.618-2.265l3.019-5.283c-4.982-2.281-8.232-6.098-8.36-6.25a6.926 6.926 0 0 0-9.715-1.07 6.927 6.927 0 0 0-1.08 9.724c.336.42 6.701 8.234 17.024 11.595v11.478a4.987 4.987 0 0 0 4.981 4.981h2.767v4.428h-.553a4.986 4.986 0 0 0-4.981 4.981v7.194h14.104v-7.194c0-2.747-1.949-4.981-4.696-4.981h-.553v-4.428h2.767a4.986 4.986 0 0 0 4.981-4.98v-11.48c10.324-3.36 16.689-11.174 17.024-11.594 2.383-2.979 1.898-7.34-1.08-9.724zm-31.44 22.203v4.506h4.427v-3.873a.24.24 0 0 1 .002-.027v-.008l.001-.008v-.006a29.942 29.942 0 0 1-4.43-.584zm7.748 4.506h4.427v-4.506a29.942 29.942 0 0 1-4.43.584c.001.017.003.032.003.049v3.873z" fill="#fff"/><path fill-rule="evenodd" clip-rule="evenodd" d="M166.287 76.832v.008l.001-.016v-.006" fill="#fff"/></svg>