<svg width="178" height="170" viewBox="0 0 178 170" fill="none" xmlns="http://www.w3.org/2000/svg"><ellipse cx="79.111" cy="76.995" rx="53.137" ry="52.868" fill="url(#a)" filter="url(#b)"/><path d="M52.848 76.186h2.632c1.253 0 2.181-.313 2.785-.94.604-.626.906-1.458.906-2.495 0-1.002-.302-1.783-.906-2.341-.592-.558-1.413-.837-2.46-.837-.946 0-1.738.262-2.376.786-.638.512-.957 1.184-.957 2.016h-4.94c0-1.299.348-2.46 1.043-3.486.707-1.037 1.686-1.846 2.94-2.427 1.264-.58 2.654-.871 4.17-.871 2.631 0 4.694.632 6.186 1.897 1.493 1.253 2.239 2.985 2.239 5.195 0 1.14-.347 2.187-1.042 3.144-.695.957-1.607 1.692-2.735 2.205 1.401.501 2.444 1.253 3.128 2.256.695 1.002 1.042 2.187 1.042 3.555 0 2.21-.809 3.981-2.427 5.314-1.606 1.334-3.737 2-6.391 2-2.484 0-4.518-.655-6.101-1.965-1.573-1.31-2.359-3.042-2.359-5.196h4.94c0 .935.347 1.698 1.042 2.29.706.593 1.572.889 2.597.889 1.174 0 2.091-.308 2.752-.923.672-.626 1.008-1.452 1.008-2.478 0-2.484-1.367-3.725-4.102-3.725h-2.614v-3.863zm31.821 4.341c0 3.44-.712 6.073-2.136 7.896-1.424 1.823-3.51 2.734-6.255 2.734-2.712 0-4.785-.894-6.22-2.683-1.436-1.789-2.171-4.352-2.205-7.69v-4.58c0-3.476.717-6.113 2.153-7.913 1.447-1.8 3.526-2.7 6.238-2.7 2.711 0 4.785.894 6.22 2.683 1.436 1.777 2.17 4.335 2.205 7.673v4.58zm-4.939-5.024c0-2.063-.285-3.56-.854-4.495-.559-.946-1.436-1.418-2.632-1.418-1.162 0-2.022.45-2.58 1.35-.548.888-.838 2.284-.872 4.187v6.05c0 2.027.273 3.537.82 4.528.558.98 1.447 1.47 2.666 1.47 1.208 0 2.08-.473 2.615-1.418.535-.946.814-2.393.837-4.341v-5.913zm8.22-4.785c0-1.527.496-2.763 1.487-3.709.991-.957 2.29-1.436 3.897-1.436 1.629 0 2.94.473 3.93 1.419.992.934 1.487 2.204 1.487 3.811v1.23c0 1.538-.496 2.775-1.487 3.709-.99.934-2.29 1.401-3.896 1.401-1.618 0-2.928-.467-3.93-1.401-.992-.946-1.488-2.216-1.488-3.811v-1.213zm3.282 1.315c0 .684.193 1.237.58 1.658.4.41.918.615 1.556.615s1.145-.21 1.52-.632c.377-.422.565-.985.565-1.692v-1.264c0-.684-.188-1.237-.564-1.658-.376-.422-.895-.633-1.555-.633-.627 0-1.134.211-1.521.633-.388.41-.581.985-.581 1.726v1.247zm8.613 12.681c0-1.538.501-2.774 1.504-3.708 1.002-.946 2.301-1.419 3.896-1.419 1.618 0 2.923.467 3.914 1.401 1.002.923 1.504 2.2 1.504 3.829v1.23c0 1.527-.49 2.763-1.47 3.709-.98.934-2.284 1.401-3.914 1.401-1.64 0-2.956-.473-3.947-1.418-.992-.946-1.487-2.2-1.487-3.76v-1.265zm3.281 1.333c0 .627.205 1.162.615 1.607.411.444.923.666 1.538.666 1.39 0 2.085-.769 2.085-2.307v-1.299c0-.683-.193-1.23-.581-1.64-.387-.422-.9-.633-1.538-.633s-1.15.21-1.538.632c-.387.41-.581.975-.581 1.692v1.282zm-8.784 2.905l-2.41-1.298 12.151-19.449 2.41 1.3-12.151 19.447zm-33.673 13.206c-.067.918-.407 1.641-1.02 2.168-.61.528-1.414.791-2.414.791-1.094 0-1.955-.367-2.584-1.101-.625-.739-.938-1.75-.938-3.036v-.521c0-.82.145-1.543.434-2.168.29-.625.701-1.103 1.236-1.435.54-.337 1.164-.504 1.875-.504.985 0 1.778.263 2.38.79.6.528.949 1.268 1.042 2.221h-1.758c-.042-.55-.197-.949-.462-1.195-.262-.25-.663-.375-1.202-.375-.586 0-1.025.21-1.318.633-.289.418-.438 1.068-.445 1.951v.644c0 .922.138 1.596.416 2.022.281.426.722.639 1.324.639.543 0 .947-.123 1.213-.37.27-.25.424-.634.463-1.154h1.758zm3.527.504h-.68V105h-1.693v-6.34h1.693v2.385h.604l1.382-2.385h2.14l-2.075 3.018L67.835 105h-2.256l-1.383-2.338zm8.098-4.002h1.693V105h-1.693v-3.914L70.173 105h-1.7v-6.34h1.7v3.908l2.12-3.908zm3.076 4.975c.382-.406.642-.809.779-1.207.137-.399.213-.963.228-1.694l.047-2.074h4.664v4.975h.915v3.269h-1.694V105h-3.756v1.904h-1.728v-3.269h.545zm1.998 0H79.4v-3.574h-1.318l-.012.761c-.035 1.164-.27 2.102-.703 2.813zm7.875-.973h-.68V105H82.87v-6.34h1.693v2.385h.604l1.382-2.385h2.14l-2.075 3.018L88.88 105h-2.255l-1.383-2.338zm7.95 2.338a1.882 1.882 0 0 1-.169-.568c-.41.457-.943.685-1.6.685-.62 0-1.136-.179-1.547-.539a1.736 1.736 0 0 1-.609-1.359c0-.672.248-1.188.744-1.547.5-.36 1.221-.541 2.162-.545h.78v-.363c0-.293-.076-.528-.229-.703-.148-.176-.385-.264-.709-.264-.285 0-.51.068-.674.205-.16.137-.24.324-.24.562H89.41a1.7 1.7 0 0 1 .34-1.02c.226-.312.547-.556.96-.731.415-.18.88-.27 1.395-.27.781 0 1.4.197 1.858.592.46.39.69.941.69 1.652v2.748c.005.602.089 1.057.253 1.365v.1h-1.711zm-1.4-1.178c.25 0 .481-.054.692-.164a1.11 1.11 0 0 0 .469-.451v-1.09h-.633c-.848 0-1.299.293-1.354.879l-.005.1c0 .211.074.384.222.521.149.137.352.205.61.205zm7.26 1.178v-6.34h2.649c.863 0 1.525.153 1.986.457.461.305.691.742.691 1.313 0 .293-.097.556-.292.791-.192.23-.473.408-.844.533.453.086.808.256 1.066.51.262.25.393.558.393.925 0 .59-.223 1.04-.668 1.348-.442.309-1.084.463-1.928.463h-3.053zm1.694-2.631v1.277h1.365c.598 0 .896-.208.896-.626 0-.426-.285-.643-.855-.651h-1.406zm0-1.137h1.049c.593-.007.89-.199.89-.574 0-.23-.082-.394-.246-.492-.16-.098-.406-.146-.738-.146h-.955v1.212zM61.565 116h-1.7v-4.969h-2.12V116H56.05v-6.34h5.514V116zm1.031-3.229c0-.628.121-1.189.364-1.681a2.67 2.67 0 0 1 1.042-1.143c.458-.269.987-.404 1.588-.404.856 0 1.553.262 2.092.785.543.524.846 1.234.908 2.133l.012.434c0 .972-.271 1.753-.814 2.343-.543.586-1.272.879-2.186.879-.914 0-1.644-.293-2.191-.879-.543-.586-.815-1.383-.815-2.39v-.077zm1.694.124c0 .601.113 1.062.34 1.382.226.317.55.475.972.475.41 0 .73-.156.961-.469.23-.316.346-.82.346-1.512 0-.589-.115-1.046-.346-1.371-.23-.324-.555-.486-.973-.486-.414 0-.734.162-.96.486-.227.321-.34.819-.34 1.495zm5.021 1.74c.383-.406.643-.809.78-1.207.136-.399.212-.963.228-1.694l.047-2.074h4.664v4.975h.914v3.269H74.25V116h-3.756v1.904h-1.729v-3.269h.545zm1.998 0h2.033v-3.574h-1.318l-.012.761c-.035 1.164-.27 2.102-.703 2.813zM80.48 116a1.879 1.879 0 0 1-.17-.568c-.41.457-.943.685-1.6.685-.62 0-1.136-.179-1.546-.539a1.736 1.736 0 0 1-.61-1.359c0-.672.248-1.188.745-1.547.5-.36 1.22-.541 2.162-.545h.779v-.363c0-.293-.076-.528-.229-.703-.148-.176-.384-.264-.709-.264-.285 0-.51.068-.674.205-.16.137-.24.324-.24.562h-1.693c0-.367.113-.707.34-1.019.226-.313.547-.557.96-.733a3.48 3.48 0 0 1 1.395-.269c.782 0 1.4.197 1.858.592.46.39.691.941.691 1.652v2.748c.004.602.088 1.057.252 1.365v.1h-1.71zm-1.4-1.178c.25 0 .48-.054.691-.164a1.11 1.11 0 0 0 .469-.451v-1.09h-.633c-.848 0-1.299.293-1.353.879l-.006.1c0 .211.074.384.222.521.149.137.352.205.61.205zm9.867-1.933c0 .976-.223 1.759-.668 2.349-.442.586-1.04.879-1.793.879-.64 0-1.158-.222-1.553-.668v2.989H83.24v-8.778h1.57l.059.621c.41-.492.945-.738 1.605-.738.781 0 1.389.289 1.823.867.433.578.65 1.375.65 2.391v.088zm-1.694-.123c0-.59-.105-1.045-.316-1.366-.207-.32-.51-.48-.908-.48-.531 0-.897.203-1.096.609v2.596c.207.418.576.627 1.108.627.808 0 1.212-.662 1.212-1.986zm2.485.005c0-.628.121-1.189.363-1.681a2.67 2.67 0 0 1 1.043-1.143c.457-.269.986-.404 1.588-.404.856 0 1.553.262 2.092.785.543.524.846 1.234.908 2.133l.012.434c0 .972-.272 1.753-.815 2.343-.543.586-1.271.879-2.185.879-.914 0-1.645-.293-2.192-.879-.543-.586-.814-1.383-.814-2.39v-.077zm1.693.124c0 .601.114 1.062.34 1.382.227.317.55.475.973.475.41 0 .73-.156.96-.469.231-.316.346-.82.346-1.512 0-.589-.115-1.046-.345-1.371-.23-.324-.555-.486-.973-.486-.414 0-.734.162-.96.486-.227.321-.34.819-.34 1.495zm7.84.767h-.68V116h-1.693v-6.34h1.693v2.385h.604l1.383-2.385h2.138l-2.074 3.018L102.91 116h-2.256l-1.383-2.338z" fill="#9B0C00"/><path d="M46.222 50.092a2.67 2.67 0 0 0 2.676-2.662 2.67 2.67 0 0 0-2.676-2.663 2.67 2.67 0 0 0-2.676 2.663 2.67 2.67 0 0 0 2.676 2.662zM94.895 8.607a2.67 2.67 0 0 0 2.676-2.663 2.67 2.67 0 0 0-2.676-2.663 2.67 2.67 0 0 0-2.676 2.663 2.67 2.67 0 0 0 2.676 2.663z" fill="#FF6B00"/><path d="M87.233 13.682c-2.478 0-4.487 1.998-4.487 4.464v4.465h4.487c2.478 0 4.487-1.999 4.487-4.465 0-2.465-2.009-4.464-4.487-4.464zm-16.165 0c2.478 0 4.487 1.998 4.487 4.464v4.465h-4.487c-2.478 0-4.487-1.999-4.487-4.465 0-2.465 2.009-4.464 4.487-4.464z" fill="#FFC304"/><path d="M79.15 15.456a3.587 3.587 0 0 1 3.596 3.577 3.587 3.587 0 0 1-3.595 3.578 3.587 3.587 0 0 1-3.596-3.578 3.586 3.586 0 0 1 3.596-3.577z" fill="#fff"/><path d="M97.348 31.016V53.78a3.205 3.205 0 0 1-3.213 3.196H64.166a3.205 3.205 0 0 1-3.212-3.196V31.016h36.394z" fill="url(#c)" filter="url(#d)"/><path d="M82.897 31.095h-7.493v25.88h7.493v-25.88z" fill="#fff"/><path d="M67.597 31.016h-6.374a1.871 1.871 0 0 1-1.875-1.866v-4.654c0-1.031.84-1.867 1.875-1.867h35.855c1.035 0 1.875.836 1.875 1.867v4.654c0 1.03-.84 1.866-1.876 1.866h-29.48z" fill="#FF6B00"/><path d="M72.125 22.597l-5.163 9.007 4.046-1.08 1.083 4.026 6.608-11.49.982-.105 7.455 13.187 1.082-4.027 4.047 1.08-6.047-10.6-14.093.002z" fill="#FFC304"/><path d="M97.078 21.298h-4.96c.594-.908.94-1.99.94-3.152 0-3.196-2.613-5.796-5.825-5.796a5.833 5.833 0 0 0-5.011 2.846 4.925 4.925 0 0 0-3.072-1.072c-1.16 0-2.228.402-3.071 1.072a5.833 5.833 0 0 0-5.012-2.846c-3.212 0-5.825 2.6-5.825 5.796a5.74 5.74 0 0 0 .94 3.152h-4.959a3.21 3.21 0 0 0-3.214 3.198v4.654c0 1.18.647 2.213 1.606 2.767v21.862c0 2.497 2.041 4.528 4.55 4.528h29.97c2.509 0 4.55-2.03 4.55-4.528V31.918a3.196 3.196 0 0 0 1.606-2.767v-4.654c.001-1.764-1.441-3.198-3.213-3.198zm.537 3.198v4.654a.537.537 0 0 1-.537.535H91.8l-3.265-5.724h8.543c.296 0 .537.24.537.535zM76.64 23.96l-4.096 7.122-.243-.902a1.333 1.333 0 0 0-.623-.81 1.344 1.344 0 0 0-1.016-.132l-.948.253 3.17-5.53h3.756zm2.575.884l2.78 4.92h-5.61l2.83-4.92zm2.57-.884h3.674l4.064 7.125-.957-.256a1.345 1.345 0 0 0-1.016.133 1.332 1.332 0 0 0-.624.809l-.233.87-4.908-8.68zm2.3-5.814a3.145 3.145 0 0 1 3.15-3.133 3.145 3.145 0 0 1 3.149 3.133 3.145 3.145 0 0 1-3.15 3.133h-3.149v-3.133zm-4.933-1.359a2.254 2.254 0 0 1 2.257 2.246 2.254 2.254 0 0 1-2.257 2.246 2.254 2.254 0 0 1-2.258-2.246 2.254 2.254 0 0 1 2.258-2.246zm-8.083-1.774a3.145 3.145 0 0 1 3.15 3.133v3.133h-3.15a3.145 3.145 0 0 1-3.15-3.133 3.145 3.145 0 0 1 3.15-3.133zm-10.382 9.482c0-.294.241-.535.538-.535h8.579l-3.281 5.725h-5.298a.537.537 0 0 1-.538-.535v-4.654zm1.606 29.284V32.347h3.564c.016.024.029.048.046.07.33.426.885.612 1.406.473l2.753-.735.737 2.74a1.336 1.336 0 0 0 1.293.987c.475 0 .92-.253 1.16-.67l.815-1.417v22.15c0 .735.6 1.331 1.338 1.331.739 0 1.338-.596 1.338-1.331v-23.52h4.817v23.22H64.166a1.872 1.872 0 0 1-1.874-1.866zm31.843 1.865h-9.9V33.727l1.734 3.068a1.34 1.34 0 0 0 2.459-.309l.737-2.74 2.752.735a1.342 1.342 0 0 0 1.406-.47c.33-.425.371-1.006.105-1.473l-.109-.19h2.69v21.431a1.872 1.872 0 0 1-1.874 1.865zm19.975-21.048l-.849.346a1.329 1.329 0 0 0-.732 1.736 1.34 1.34 0 0 0 1.745.728l.85-.346a1.329 1.329 0 0 0 .731-1.736 1.34 1.34 0 0 0-1.745-.728zm-6.858 2.792a1.33 1.33 0 0 0-.731 1.736 1.34 1.34 0 0 0 1.745.728l.849-.346a1.329 1.329 0 0 0 .732-1.736 1.34 1.34 0 0 0-1.745-.728l-.85.346zm4.485 1.17a1.329 1.329 0 0 0-.731 1.737l.347.845a1.34 1.34 0 0 0 1.745.727 1.33 1.33 0 0 0 .732-1.736l-.348-.845a1.34 1.34 0 0 0-1.745-.728zm-.714-5.25a1.34 1.34 0 0 0-1.745-.728 1.329 1.329 0 0 0-.731 1.736l.347.845a1.34 1.34 0 0 0 1.745.728 1.329 1.329 0 0 0 .732-1.736l-.348-.845zM63.155 5.157a1.342 1.342 0 0 0-1.803.573 1.328 1.328 0 0 0 .576 1.794l.816.418c.656.337 1.464.08 1.802-.573a1.328 1.328 0 0 0-.576-1.793l-.815-.419zm-6.995-.594l.815.418c.656.337 1.463.08 1.802-.573a1.328 1.328 0 0 0-.575-1.793l-.816-.419a1.341 1.341 0 0 0-1.803.573 1.328 1.328 0 0 0 .576 1.793zM59.4 6.35a1.342 1.342 0 0 0-1.802.574l-.42.811a1.328 1.328 0 0 0 .575 1.793c.657.337 1.464.08 1.803-.572l.42-.812a1.328 1.328 0 0 0-.575-1.793zm3.553-3.946A1.328 1.328 0 0 0 62.377.61a1.341 1.341 0 0 0-1.802.573l-.421.811a1.328 1.328 0 0 0 .576 1.794c.656.337 1.464.08 1.802-.573l.42-.811zm31.941 7.534c2.214 0 4.015-1.792 4.015-3.994S97.108 1.95 94.894 1.95c-2.213 0-4.014 1.792-4.014 3.994s1.801 3.994 4.014 3.994zm0-5.325c.738 0 1.338.597 1.338 1.331s-.6 1.331-1.338 1.331a1.336 1.336 0 0 1-1.338-1.331c0-.734.6-1.331 1.338-1.331zM46.223 43.436c-2.213 0-4.014 1.792-4.014 3.994s1.8 3.994 4.014 3.994c2.213 0 4.014-1.792 4.014-3.994s-1.8-3.994-4.014-3.994zm0 5.325a1.336 1.336 0 0 1-1.338-1.331c0-.734.6-1.331 1.338-1.331.738 0 1.338.597 1.338 1.33 0 .735-.6 1.332-1.338 1.332z" fill="#1B2026"/><defs><filter id="b" x=".974" y="14.127" width="176.274" height="155.737" filterUnits="userSpaceOnUse" color-interpolation-filters="sRGB"><feFlood flood-opacity="0" result="BackgroundImageFix"/><feColorMatrix in="SourceAlpha" values="0 0 0 0 0 0 0 0 0 0 0 0 0 0 0 0 0 0 127 0"/><feOffset dx="20" dy="15"/><feGaussianBlur stdDeviation="12.5"/><feColorMatrix values="0 0 0 0 0 0 0 0 0 0 0 0 0 0 0 0 0 0 0.1 0"/><feBlend in2="BackgroundImageFix" result="effect1_dropShadow"/><feColorMatrix in="SourceAlpha" values="0 0 0 0 0 0 0 0 0 0 0 0 0 0 0 0 0 0 127 0"/><feOffset dy="15"/><feGaussianBlur stdDeviation="12.5"/><feColorMatrix values="0 0 0 0 1 0 0 0 0 1 0 0 0 0 1 0 0 0 0.25 0"/><feBlend in2="effect1_dropShadow" result="effect2_dropShadow"/><feBlend in="SourceGraphic" in2="effect2_dropShadow" result="shape"/></filter><filter id="d" x="55.954" y="21.016" width="86.394" height="75.96" filterUnits="userSpaceOnUse" color-interpolation-filters="sRGB"><feFlood flood-opacity="0" result="BackgroundImageFix"/><feColorMatrix in="SourceAlpha" values="0 0 0 0 0 0 0 0 0 0 0 0 0 0 0 0 0 0 127 0"/><feOffset dx="20" dy="15"/><feGaussianBlur stdDeviation="12.5"/><feColorMatrix values="0 0 0 0 0 0 0 0 0 0 0 0 0 0 0 0 0 0 0.1 0"/><feBlend in2="BackgroundImageFix" result="effect1_dropShadow"/><feBlend in="SourceGraphic" in2="effect1_dropShadow" result="shape"/></filter><linearGradient id="a" x1="119.95" y1="8.846" x2="79" y2="93.246" gradientUnits="userSpaceOnUse"><stop stop-color="#FF5E03"/><stop offset="1" stop-color="#FFBB0D"/></linearGradient><linearGradient id="c" x1="93.136" y1="27.265" x2="85.193" y2="50.101" gradientUnits="userSpaceOnUse"><stop stop-color="#FF5E03"/><stop offset="1" stop-color="#FFBB0D"/></linearGradient></defs></svg>