<svg width="230" height="235" viewBox="0 0 230 235" fill="none" xmlns="http://www.w3.org/2000/svg"><circle cx="104.943" cy="115.22" r="79.115" fill="url(#a)" filter="url(#b)"/><path d="M68.93 118.938h3.61c1.718 0 2.991-.43 3.82-1.29.828-.859 1.242-2 1.242-3.421 0-1.375-.415-2.446-1.243-3.211-.812-.766-1.937-1.149-3.375-1.149-1.296 0-2.382.36-3.257 1.078-.875.703-1.313 1.625-1.313 2.766h-6.773c0-1.781.476-3.375 1.43-4.781.968-1.422 2.312-2.532 4.03-3.328 1.735-.797 3.641-1.196 5.72-1.196 3.609 0 6.437.867 8.484 2.602 2.047 1.719 3.07 4.094 3.07 7.125 0 1.562-.477 3-1.43 4.312-.953 1.313-2.203 2.321-3.75 3.024 1.922.687 3.352 1.719 4.29 3.093.953 1.376 1.43 3 1.43 4.876 0 3.031-1.11 5.46-3.33 7.289-2.202 1.828-5.124 2.742-8.765 2.742-3.406 0-6.195-.899-8.367-2.696-2.156-1.796-3.234-4.171-3.234-7.125h6.773c0 1.282.477 2.329 1.43 3.141.969.813 2.156 1.219 3.562 1.219 1.61 0 2.868-.422 3.774-1.266.922-.859 1.383-1.992 1.383-3.398 0-3.406-1.875-5.11-5.625-5.11H68.93v-5.296zm43.64 5.953c0 4.718-.976 8.328-2.929 10.828-1.953 2.5-4.813 3.75-8.579 3.75-3.718 0-6.562-1.227-8.53-3.68-1.97-2.453-2.977-5.969-3.024-10.547v-6.281c0-4.766.984-8.383 2.953-10.852 1.984-2.468 4.836-3.703 8.555-3.703 3.718 0 6.562 1.227 8.531 3.68 1.969 2.437 2.976 5.945 3.023 10.523v6.282zM105.797 118c0-2.828-.391-4.883-1.172-6.164-.766-1.297-1.969-1.945-3.609-1.945-1.594 0-2.774.617-3.54 1.851-.75 1.219-1.148 3.133-1.195 5.742v8.297c0 2.781.375 4.852 1.125 6.211.766 1.344 1.985 2.016 3.656 2.016 1.657 0 2.852-.649 3.586-1.946.735-1.296 1.118-3.281 1.149-5.953V118zm11.273-6.562c0-2.094.68-3.79 2.039-5.086 1.36-1.313 3.141-1.969 5.344-1.969 2.235 0 4.031.648 5.391 1.945 1.359 1.281 2.039 3.024 2.039 5.227v1.687c0 2.11-.68 3.805-2.039 5.086-1.36 1.281-3.141 1.922-5.344 1.922-2.219 0-4.016-.641-5.391-1.922-1.359-1.297-2.039-3.039-2.039-5.226v-1.664zm4.5 1.804c0 .938.266 1.696.797 2.274.547.562 1.258.843 2.133.843s1.57-.289 2.086-.867c.516-.578.773-1.351.773-2.32v-1.734c0-.938-.257-1.696-.773-2.274-.516-.578-1.227-.867-2.133-.867-.859 0-1.555.289-2.086.867-.531.563-.797 1.352-.797 2.367v1.711zm11.813 17.391c0-2.11.687-3.805 2.062-5.086 1.375-1.297 3.157-1.945 5.344-1.945 2.219 0 4.008.64 5.367 1.921 1.375 1.266 2.063 3.016 2.063 5.25v1.688c0 2.094-.672 3.789-2.016 5.086-1.344 1.281-3.133 1.922-5.367 1.922-2.25 0-4.055-.649-5.414-1.946-1.36-1.296-2.039-3.015-2.039-5.156v-1.734zm4.5 1.828c0 .859.281 1.594.844 2.203.562.609 1.265.914 2.109.914 1.906 0 2.859-1.055 2.859-3.164v-1.781c0-.938-.265-1.688-.797-2.25-.531-.578-1.234-.867-2.109-.867s-1.578.289-2.109.867c-.532.562-.797 1.336-.797 2.32v1.758zm-12.047 3.984l-3.305-1.781 16.664-26.672 3.305 1.781-16.664 26.672zm-64.559 19.713c-.066.918-.406 1.641-1.02 2.168-.609.528-1.413.791-2.413.791-1.094 0-1.955-.367-2.584-1.101-.625-.739-.938-1.75-.938-3.036v-.521c0-.82.145-1.543.434-2.168.289-.625.701-1.103 1.236-1.436.54-.335 1.164-.503 1.875-.503.985 0 1.778.263 2.38.791.6.527.948 1.267 1.042 2.22h-1.758c-.043-.551-.197-.949-.463-1.195-.261-.25-.662-.375-1.2-.375-.587 0-1.026.211-1.32.633-.288.418-.437 1.068-.445 1.951v.644c0 .922.14 1.596.416 2.022.282.426.723.639 1.325.639.543 0 .947-.123 1.213-.37.27-.25.423-.634.462-1.154h1.758zm3.528.504h-.68V159h-1.693v-6.34h1.693v2.385h.603l1.383-2.385h2.139l-2.074 3.018L68.443 159h-2.255l-1.383-2.338zm8.097-4.002h1.694V159h-1.694v-3.914L70.782 159h-1.7v-6.34h1.7v3.908l2.12-3.908zm3.076 4.975c.383-.406.643-.809.78-1.207.136-.399.213-.963.228-1.694l.047-2.074h4.664v4.975h.914v3.269h-1.693V159h-3.756v1.904h-1.728v-3.269h.544zm1.999 0h2.033v-3.574h-1.32l-.011.761c-.036 1.164-.27 2.102-.703 2.813zm7.875-.973h-.68V159h-1.694v-6.34h1.694v2.385h.603l1.383-2.385h2.139l-2.074 3.018L89.49 159h-2.256l-1.382-2.338zm7.95 2.338a1.882 1.882 0 0 1-.17-.568c-.41.457-.943.685-1.599.685-.62 0-1.136-.179-1.547-.539a1.736 1.736 0 0 1-.609-1.359c0-.672.248-1.188.744-1.547.5-.36 1.22-.541 2.162-.545h.78v-.363c0-.293-.077-.528-.229-.703-.148-.176-.385-.264-.709-.264-.285 0-.51.068-.674.205-.16.137-.24.324-.24.562h-1.693a1.7 1.7 0 0 1 .34-1.019c.226-.313.546-.557.96-.733a3.48 3.48 0 0 1 1.395-.269c.781 0 1.4.197 1.857.592.461.39.692.941.692 1.652v2.748c.004.602.088 1.057.252 1.365v.1h-1.711zm-1.4-1.178c.25 0 .48-.054.692-.164a1.11 1.11 0 0 0 .469-.451v-1.09h-.633c-.848 0-1.3.293-1.354.879l-.006.1c0 .211.075.384.223.521.148.137.351.205.61.205zm7.26 1.178v-6.34h2.649c.863 0 1.525.152 1.986.457.461.305.691.742.691 1.313 0 .293-.097.556-.293.791-.191.23-.472.408-.843.533.453.086.808.256 1.066.51.262.25.393.558.393.925 0 .59-.223 1.04-.668 1.348-.442.309-1.084.463-1.928.463h-3.053zm1.693-2.631v1.277h1.366c.597 0 .896-.208.896-.626 0-.426-.285-.643-.855-.651h-1.407zm0-1.137h1.049c.594-.007.891-.199.891-.574 0-.23-.082-.394-.246-.492-.16-.098-.406-.146-.738-.146h-.956v1.212zM114.85 159h-1.7v-4.969h-2.121V159h-1.693v-6.34h5.514V159zm1.031-3.229c0-.628.121-1.189.363-1.681a2.67 2.67 0 0 1 1.043-1.143c.457-.269.986-.404 1.588-.404.855 0 1.553.262 2.092.785.543.524.845 1.234.908 2.133l.012.434c0 .972-.272 1.753-.815 2.343-.543.586-1.271.879-2.185.879-.914 0-1.645-.293-2.192-.879-.543-.586-.814-1.383-.814-2.39v-.077zm1.693.124c0 .601.114 1.062.34 1.382.227.317.551.475.973.475.41 0 .73-.156.961-.469.23-.316.345-.82.345-1.512 0-.589-.115-1.046-.345-1.371-.231-.324-.555-.486-.973-.486-.414 0-.734.162-.961.486-.226.321-.34.819-.34 1.495zm5.022 1.74c.383-.406.642-.809.779-1.207.137-.399.213-.963.229-1.694l.046-2.074h4.664v4.975h.915v3.269h-1.694V159h-3.756v1.904h-1.728v-3.269h.545zm1.998 0h2.033v-3.574h-1.318l-.012.761c-.035 1.164-.27 2.102-.703 2.813zm9.17 1.365a1.879 1.879 0 0 1-.17-.568c-.41.457-.944.685-1.6.685-.621 0-1.137-.179-1.547-.539a1.736 1.736 0 0 1-.609-1.359c0-.672.248-1.188.744-1.547.5-.36 1.221-.541 2.162-.545h.779v-.363c0-.293-.076-.528-.228-.703-.149-.176-.385-.264-.709-.264-.285 0-.51.068-.674.205-.16.137-.24.324-.24.562h-1.693c0-.367.113-.707.339-1.019.227-.313.547-.557.961-.733a3.481 3.481 0 0 1 1.395-.269c.781 0 1.4.197 1.857.592.461.39.692.941.692 1.652v2.748c.004.602.088 1.057.252 1.365v.1h-1.711zm-1.401-1.178c.25 0 .481-.054.692-.164.211-.113.367-.263.468-.451v-1.09h-.632c-.848 0-1.299.293-1.354.879l-.006.1c0 .211.074.384.223.521.148.137.351.205.609.205zm9.867-1.933c0 .976-.222 1.759-.668 2.349-.441.586-1.039.879-1.792.879-.641 0-1.159-.222-1.553-.668v2.989h-1.694v-8.778h1.571l.058.621c.41-.492.946-.738 1.606-.738.781 0 1.388.289 1.822.867.434.578.65 1.375.65 2.391v.088zm-1.693-.123c0-.59-.105-1.045-.316-1.366-.207-.32-.51-.48-.909-.48-.531 0-.896.203-1.095.609v2.596c.207.418.576.627 1.107.627.809 0 1.213-.662 1.213-1.986zm2.484.005c0-.628.122-1.189.364-1.681a2.67 2.67 0 0 1 1.043-1.143c.457-.269.986-.404 1.588-.404.855 0 1.552.262 2.091.785.543.524.846 1.234.909 2.133l.011.434c0 .972-.271 1.753-.814 2.343-.543.586-1.272.879-2.186.879-.914 0-1.644-.293-2.191-.879-.543-.586-.815-1.383-.815-2.39v-.077zm1.694.124c0 .601.113 1.062.34 1.382.226.317.55.475.972.475.411 0 .731-.156.961-.469.231-.316.346-.82.346-1.512 0-.589-.115-1.046-.346-1.371-.23-.324-.554-.486-.972-.486-.414 0-.735.162-.961.486-.227.321-.34.819-.34 1.495zm7.84.767h-.68V159h-1.693v-6.34h1.693v2.385h.604l1.382-2.385H156l-2.074 3.018 2.267 3.322h-2.255l-1.383-2.338z" fill="#9B0C00"/><path d="M55.977 74.96a3.984 3.984 0 1 0 0-7.968 3.984 3.984 0 0 0 0 7.969zm72.466-62.08a3.985 3.985 0 1 0 0-7.97 3.985 3.985 0 0 0 0 7.97z" fill="#FF6B00"/><path d="M117.037 20.474a6.682 6.682 0 0 0-6.682 6.681v6.681h6.682a6.681 6.681 0 0 0 0-13.362zm-24.069 0a6.681 6.681 0 0 1 6.681 6.681v6.681h-6.68a6.681 6.681 0 1 1 0-13.362z" fill="#FFC304"/><path d="M105.002 23.129a5.353 5.353 0 1 1 0 10.707 5.353 5.353 0 0 1 0-10.707z" fill="#fff"/><path d="M132.095 46.415v34.064a4.783 4.783 0 0 1-4.783 4.783h-44.62a4.783 4.783 0 0 1-4.784-4.783V46.415h54.187z" fill="url(#c)" filter="url(#d)"/><path d="M110.58 46.531H99.424v38.73h11.156v-38.73z" fill="#fff"/><path d="M87.8 46.414h-9.49a2.793 2.793 0 0 1-2.792-2.792v-6.965a2.793 2.793 0 0 1 2.792-2.793h53.383a2.793 2.793 0 0 1 2.793 2.793v6.965a2.793 2.793 0 0 1-2.793 2.792H87.799z" fill="#FF6B00"/><path d="M94.541 33.815l-7.688 13.479 6.025-1.617 1.612 6.026 9.839-17.195 1.462-.158 11.099 19.735 1.612-6.026 6.024 1.617-9.002-15.864-20.983.003z" fill="#FFC304"/><path d="M131.694 31.871h-7.384a8.621 8.621 0 0 0 1.4-4.717c0-4.782-3.891-8.673-8.673-8.673a8.677 8.677 0 0 0-7.462 4.259 7.308 7.308 0 0 0-4.573-1.604 7.308 7.308 0 0 0-4.573 1.604 8.676 8.676 0 0 0-7.462-4.259c-4.782 0-8.673 3.891-8.673 8.673a8.62 8.62 0 0 0 1.4 4.717h-7.383a4.79 4.79 0 0 0-4.786 4.785v6.965c0 1.767.963 3.311 2.391 4.14v32.717a6.783 6.783 0 0 0 6.775 6.776h44.621a6.783 6.783 0 0 0 6.775-6.776V47.761a4.786 4.786 0 0 0 2.391-4.14v-6.965a4.79 4.79 0 0 0-4.784-4.785zm.801 4.785v6.965c0 .442-.36.801-.801.801h-7.858l-4.861-8.566h12.719c.441 0 .801.359.801.8zm-31.232-.8l-6.099 10.657-.361-1.351a1.992 1.992 0 0 0-2.44-1.41l-1.412.38 4.72-8.277h5.592zm3.833 1.322l4.141 7.361h-8.352l4.211-7.36zm3.828-1.323h5.47l6.05 10.662-1.425-.383a1.993 1.993 0 0 0-2.441 1.41l-.348 1.301-7.306-12.99zm3.424-8.7a4.694 4.694 0 0 1 4.689-4.69 4.694 4.694 0 0 1 4.689 4.69 4.694 4.694 0 0 1-4.689 4.688h-4.689v-4.689zm-7.345-2.034a3.365 3.365 0 0 1 3.361 3.36 3.365 3.365 0 0 1-3.361 3.362 3.365 3.365 0 0 1-3.362-3.361 3.365 3.365 0 0 1 3.362-3.361zm-12.035-2.655a4.694 4.694 0 0 1 4.69 4.688v4.69h-4.69a4.694 4.694 0 0 1-4.689-4.69 4.694 4.694 0 0 1 4.69-4.688zm-15.457 14.19c0-.441.359-.8.8-.8h12.774l-4.886 8.566h-7.888c-.441 0-.8-.36-.8-.8v-6.966zm2.39 43.822V48.406h5.307c.024.035.043.072.07.105a1.993 1.993 0 0 0 2.093.707l4.098-1.1 1.097 4.1a1.992 1.992 0 0 0 3.653.474l1.213-2.12V83.72a1.992 1.992 0 0 0 3.984 0V48.524h7.172v34.745H82.692a2.794 2.794 0 0 1-2.79-2.79zm47.412 2.791h-14.74V50.471l2.582 4.59a1.991 1.991 0 0 0 3.661-.462l1.096-4.1 4.099 1.1a1.991 1.991 0 0 0 2.249-2.907l-.162-.286h4.006v32.072a2.794 2.794 0 0 1-2.791 2.791zm29.741-31.499l-1.265.518a1.992 1.992 0 0 0 1.509 3.688l1.265-.518a1.992 1.992 0 0 0-1.509-3.687zm-10.21 4.18a1.992 1.992 0 0 0 1.509 3.687l1.264-.517a1.993 1.993 0 1 0-1.509-3.688l-1.264.518zm6.677 1.75a1.993 1.993 0 0 0-1.089 2.599l.518 1.264a1.992 1.992 0 1 0 3.687-1.509l-.517-1.264a1.993 1.993 0 0 0-2.599-1.09zm-1.063-7.857a1.993 1.993 0 0 0-3.688 1.51l.518 1.264a1.992 1.992 0 1 0 3.687-1.509l-.517-1.264zM81.186 7.718a1.992 1.992 0 0 0-1.826 3.541l1.214.626a1.992 1.992 0 0 0 1.827-3.54l-1.215-.627zM70.77 6.827l1.214.627a1.992 1.992 0 0 0 1.827-3.541l-1.214-.627a1.992 1.992 0 0 0-1.827 3.541zm4.827 2.677a1.992 1.992 0 0 0-2.684.857l-.626 1.214a1.993 1.993 0 0 0 3.54 1.827l.627-1.215a1.992 1.992 0 0 0-.857-2.683zm5.288-5.907a1.992 1.992 0 0 0-3.54-1.827l-.627 1.215A1.992 1.992 0 0 0 80.26 4.81l.626-1.214zm47.558 11.274a5.983 5.983 0 0 0 5.977-5.976 5.983 5.983 0 0 0-5.977-5.977 5.983 5.983 0 0 0-5.976 5.977 5.983 5.983 0 0 0 5.976 5.976zm0-7.968c1.099 0 1.993.894 1.993 1.992a1.995 1.995 0 0 1-1.993 1.992 1.995 1.995 0 0 1-1.992-1.992c0-1.098.894-1.992 1.992-1.992zM55.977 65A5.983 5.983 0 0 0 50 70.977a5.983 5.983 0 0 0 5.977 5.976 5.984 5.984 0 0 0 5.976-5.977A5.983 5.983 0 0 0 55.976 65zm0 7.969a1.995 1.995 0 0 1-1.993-1.992c0-1.099.894-1.993 1.992-1.993 1.099 0 1.993.894 1.993 1.993a1.995 1.995 0 0 1-1.992 1.992z" fill="#1B2026"/><defs><filter id="b" x=".828" y="26.105" width="228.23" height="208.23" filterUnits="userSpaceOnUse" color-interpolation-filters="sRGB"><feFlood flood-opacity="0" result="BackgroundImageFix"/><feColorMatrix in="SourceAlpha" values="0 0 0 0 0 0 0 0 0 0 0 0 0 0 0 0 0 0 127 0"/><feOffset dx="20" dy="15"/><feGaussianBlur stdDeviation="12.5"/><feColorMatrix values="0 0 0 0 0 0 0 0 0 0 0 0 0 0 0 0 0 0 0.1 0"/><feBlend in2="BackgroundImageFix" result="effect1_dropShadow"/><feColorMatrix in="SourceAlpha" values="0 0 0 0 0 0 0 0 0 0 0 0 0 0 0 0 0 0 127 0"/><feOffset dy="15"/><feGaussianBlur stdDeviation="12.5"/><feColorMatrix values="0 0 0 0 1 0 0 0 0 1 0 0 0 0 1 0 0 0 0.25 0"/><feBlend in2="effect1_dropShadow" result="effect2_dropShadow"/><feBlend in="SourceGraphic" in2="effect2_dropShadow" result="shape"/></filter><filter id="d" x="72.908" y="36.415" width="104.187" height="88.847" filterUnits="userSpaceOnUse" color-interpolation-filters="sRGB"><feFlood flood-opacity="0" result="BackgroundImageFix"/><feColorMatrix in="SourceAlpha" values="0 0 0 0 0 0 0 0 0 0 0 0 0 0 0 0 0 0 127 0"/><feOffset dx="20" dy="15"/><feGaussianBlur stdDeviation="12.5"/><feColorMatrix values="0 0 0 0 0 0 0 0 0 0 0 0 0 0 0 0 0 0 0.1 0"/><feBlend in2="BackgroundImageFix" result="effect1_dropShadow"/><feBlend in="SourceGraphic" in2="effect1_dropShadow" result="shape"/></filter><linearGradient id="a" x1="165.748" y1="13.238" x2="104.276" y2="139.294" gradientUnits="userSpaceOnUse"><stop stop-color="#FF5E03"/><stop offset="1" stop-color="#FFBB0D"/></linearGradient><linearGradient id="c" x1="125.825" y1="40.8" x2="113.891" y2="74.936" gradientUnits="userSpaceOnUse"><stop stop-color="#FF5E03"/><stop offset="1" stop-color="#FFBB0D"/></linearGradient></defs></svg>